{
  "accessors": [
    {
      "bufferView": 1,
      "componentType": 5126,
      "count": 18382,
      "max": [
        29.393491744995117,
        5.242164134979248,
        28.156021118164063
      ],
      "min": [
        -29.393491744995117,
        -5.379572868347168,
        -28.156017303466797
      ],
      "type": "VEC3"
    },
    {
      "bufferView": 1,
      "byteOffset": 220584,
      "componentType": 5126,
      "count": 18382,
      "max": [
        1.0,
        1.0,
        1.0
      ],
      "min": [
        -1.0,
        -1.0,
        -0.9999999403953552
      ],
      "type": "VEC3"
    },
    {
      "bufferView": 2,
      "componentType": 5126,
      "count": 18382,
      "max": [
        0.9686274528503418,
        0.2078431397676468,
        0.3176470696926117,
        1.0
      ],
      "min": [
        0.9686274528503418,
        0.2078431397676468,
        0.3176470696926117,
        1.0
      ],
      "type": "VEC4"
    },
    {
      "bufferView": 0,
      "componentType": 5125,
      "count": 110184,
      "type": "SCALAR"
    },
    {
      "bufferView": 1,
      "byteOffset": 441168,
      "componentType": 5126,
      "count": 65532,
      "max": [
        14.702486038208008,
        11.322622299194336,
        17.09797477722168
      ],
      "min": [
        -14.829097747802734,
        -11.456504821777344,
        -7.977630138397217
      ],
      "type": "VEC3"
    },
    {
      "bufferView": 1,
      "byteOffset": 1227552,
      "componentType": 5126,
      "count": 65532,
      "max": [
        0.9981443285942078,
        0.9999998211860657,
        0.9999994039535522
      ],
      "min": [
        -0.9999372959136963,
        -0.9999998211860657,
        -0.999984085559845
      ],
      "type": "VEC3"
    },
    {
      "bufferView": 2,
      "byteOffset": 294112,
      "componentType": 5126,
      "count": 65532,
      "max": [
        1.0,
        1.0,
        1.0,
        1.0
      ],
      "min": [
        1.0,
        1.0,
        1.0,
        1.0
      ],
      "type": "VEC4"
    },
    {
      "bufferView": 0,
      "byteOffset": 440736,
      "componentType": 5125,
      "count": 373233,
      "type": "SCALAR"
    },
    {
      "bufferView": 1,
      "byteOffset": 2013936,
      "componentType": 5126,
      "count": 65532,
      "max": [
        14.712716102600098,
        11.322622299194336,
        17.096981048583984
      ],
      "min": [
        -14.829097747802734,
        -11.39884090423584,
        -7.977630138397217
      ],
      "type": "VEC3"
    },
    {
      "bufferView": 1,
      "byteOffset": 2800320,
      "componentType": 5126,
      "count": 65532,
      "max": [
        0.9999358654022217,
        0.9999998211860657,
        0.9999994039535522
      ],
      "min": [
        -0.9999372363090515,
        -0.9999982118606567,
        -0.9999840259552002
      ],
      "type": "VEC3"
    },
    {
      "bufferView": 2,
      "byteOffset": 1342624,
      "componentType": 5126,
      "count": 65532,
      "max": [
        1.0,
        1.0,
        1.0,
        1.0
      ],
      "min": [
        1.0,
        1.0,
        1.0,
        1.0
      ],
      "type": "VEC4"
    },
    {
      "bufferView": 0,
      "byteOffset": 1933668,
      "componentType": 5125,
      "count": 378036,
      "type": "SCALAR"
    },
    {
      "bufferView": 1,
      "byteOffset": 3586704,
      "componentType": 5126,
      "count": 10925,
      "max": [
        14.712716102600098,
        -5.325082778930664,
        17.096981048583984
      ],
      "min": [
        -14.789895057678223,
        -11.455902099609375,
        -7.834707260131836
      ],
      "type": "VEC3"
    },
    {
      "bufferView": 1,
      "byteOffset": 3717804,
      "componentType": 5126,
      "count": 10925,
      "max": [
        0.9999357461929321,
        0.4976573884487152,
        0.9999752044677734
      ],
      "min": [
        -0.994496762752533,
        -0.9999647736549377,
        -0.8392452001571655
      ],
      "type": "VEC3"
    },
    {
      "bufferView": 2,
      "byteOffset": 2391136,
      "componentType": 5126,
      "count": 10925,
      "max": [
        1.0,
        1.0,
        1.0,
        1.0
      ],
      "min": [
        1.0,
        1.0,
        1.0,
        1.0
      ],
      "type": "VEC4"
    },
    {
      "bufferView": 0,
      "byteOffset": 3445812,
      "componentType": 5125,
      "count": 57699,
      "type": "SCALAR"
    },
    {
      "bufferView": 1,
      "byteOffset": 3848904,
      "componentType": 5126,
      "count": 22850,
      "max": [
        14.702447891235352,
        5.191200256347656,
        17.097936630249023
      ],
      "min": [
        -14.818882942199707,
        -5.325082778930664,
        -7.976312637329102
      ],
      "type": "VEC3"
    },
    {
      "bufferView": 1,
      "byteOffset": 4123104,
      "componentType": 5126,
      "count": 22850,
      "max": [
        0.0,
        1.0,
        0.0
      ],
      "min": [
        0.0,
        -1.0,
        0.0
      ],
      "type": "VEC3"
    },
    {
      "bufferView": 2,
      "byteOffset": 2565936,
      "componentType": 5126,
      "count": 22850,
      "max": [
        1.0,
        1.0,
        1.0,
        1.0
      ],
      "min": [
        1.0,
        1.0,
        1.0,
        1.0
      ],
      "type": "VEC4"
    },
    {
      "bufferView": 0,
      "byteOffset": 3676608,
      "componentType": 5125,
      "count": 131076,
      "type": "SCALAR"
    }
  ],
  "asset": {
    "extras": {
      "author": "CzernO (https://sketchfab.com/czernobog)",
      "license": "CC-BY-4.0 (http://creativecommons.org/licenses/by/4.0/)",
      "source": "https://sketchfab.com/3d-models/heart-speech-bubble-91f769a20f844e3c94db828543686edf",
      "title": "Heart Speech Bubble"
    },
    "generator": "Sketchfab-12.68.0",
    "version": "2.0"
  },
  "bufferViews": [
    {
      "buffer": 0,
      "byteLength": 4200912,
      "name": "floatBufferViews",
      "target": 34963
    },
    {
      "buffer": 0,
      "byteLength": 4397304,
      "byteOffset": 4200912,
      "byteStride": 12,
      "name": "floatBufferViews",
      "target": 34962
    },
    {
      "buffer": 0,
      "byteLength": 2931536,
      "byteOffset": 8598216,
      "byteStride": 16,
      "name": "floatBufferViews",
      "target": 34962
    }
  ],
  "buffers": [
    {
      "byteLength": 11529752,
      "uri": "scene.bin"
    }
  ],
  "materials": [
    {
      "doubleSided": true,
      "name": "material_0",
      "pbrMetallicRoughness": {
        "metallicFactor": 0.0,
        "roughnessFactor": 0.6
      }
    },
    {
      "doubleSided": true,
      "name": "material_1",
      "pbrMetallicRoughness": {
        "metallicFactor": 0.0,
        "roughnessFactor": 0.6
      }
    }
  ],
  "meshes": [
    {
      "name": "Object_0",
      "primitives": [
        {
          "attributes": {
            "COLOR_0": 2,
            "NORMAL": 1,
            "POSITION": 0
          },
          "indices": 3,
          "material": 1,
          "mode": 4
        }
      ]
    },
    {
      "name": "Object_1",
      "primitives": [
        {
          "attributes": {
            "COLOR_0": 6,
            "NORMAL": 5,
            "POSITION": 4
          },
          "indices": 7,
          "material": 0,
          "mode": 4
        }
      ]
    },
    {
      "name": "Object_2",
      "primitives": [
        {
          "attributes": {
            "COLOR_0": 10,
            "NORMAL": 9,
            "POSITION": 8
          },
          "indices": 11,
          "material": 0,
          "mode": 4
        }
      ]
    },
    {
      "name": "Object_3",
      "primitives": [
        {
          "attributes": {
            "COLOR_0": 14,
            "NORMAL": 13,
            "POSITION": 12
          },
          "indices": 15,
          "material": 0,
          "mode": 4
        }
      ]
    },
    {
      "name": "Object_4",
      "primitives": [
        {
          "attributes": {
            "COLOR_0": 18,
            "NORMAL": 17,
            "POSITION": 16
          },
          "indices": 19,
          "material": 0,
          "mode": 4
        }
      ]
    }
  ],
  "nodes": [
    {
      "children": [
        1
      ],
      "matrix": [
        1.0,
        0.0,
        0.0,
        0.0,
        0.0,
        2.220446049250313e-16,
        -1.0,
        0.0,
        0.0,
        1.0,
        2.220446049250313e-16,
        0.0,
        0.0,
        0.0,
        0.0,
        1.0
      ],
      "name": "Sketchfab_model"
    },
    {
      "children": [
        2,
        4
      ],
      "name": "zbrush_concat.osgb.cleaner.materialmerger.gles"
    },
    {
      "children": [
        3
      ],
      "name": "/sketchfab-data/processing/models/815398293a224c19afbc40d860b38166/91f769a20f844e3c94db828543686edf/1bdae070562e486d8b9a1bc1c8be202c/preprocess/SubTool-1-14032081.OBJ"
    },
    {
      "mesh": 0,
      "name": "Object_3"
    },
    {
      "children": [
        5,
        6,
        7,
        8
      ],
      "name": "/sketchfab-data/processing/models/815398293a224c19afbc40d860b38166/91f769a20f844e3c94db828543686edf/1bdae070562e486d8b9a1bc1c8be202c/preprocess/SubTool-0-2367718.OBJ"
    },
    {
      "mesh": 1,
      "name": "Object_5"
    },
    {
      "mesh": 2,
      "name": "Object_6"
    },
    {
      "mesh": 3,
      "name": "Object_7"
    },
    {
      "mesh": 4,
      "name": "Object_8"
    }
  ],
  "scene": 0,
  "scenes": [
    {
      "name": "Sketchfab_Scene",
      "nodes": [
        0
      ]
    }
  ]
}
