<svg width="65" height="34" viewBox="0 0 65 34" fill="none" xmlns="http://www.w3.org/2000/svg">
<path d="M0.323125 0.975999H9.92313V34H0.323125V0.975999ZM18.8511 21.28H11.9391V13.6H18.8511V0.975999H28.4511V34H18.8511V21.28ZM32.5225 27.04C34.2505 27.04 35.5785 26.992 36.5065 26.896C37.4345 26.8 38.1065 26.56 38.5225 26.176C38.9705 25.76 39.2265 25.168 39.2905 24.4C39.3545 23.376 39.3865 22.32 39.3865 21.232V0.975999H48.9865V17.968C48.9865 21.04 48.9385 23.392 48.8425 25.024C48.7465 26.656 48.5385 28.016 48.2185 29.104C47.8665 30.288 47.3385 31.216 46.6345 31.888C45.9625 32.528 45.0185 33.008 43.8025 33.328C42.6825 33.616 41.2745 33.808 39.5785 33.904C37.9145 33.968 35.5625 34 32.5225 34V27.04ZM55.0251 26.176H64.7211V34H55.0251V26.176Z" fill="black"/>
</svg>
