<svg width="775" height="434" viewBox="0 0 775 434" fill="none" xmlns="http://www.w3.org/2000/svg">
<rect width="775" height="434" fill="white"/>
<g filter="url(#filter0_d_57_77)">
<path d="M208.115 205.774C208.115 192.326 196.872 181.423 183 181.423C169.131 181.423 157.886 192.326 157.886 205.774C157.886 219.223 169.131 230.126 183 230.126C196.872 230.126 208.115 219.223 208.115 205.774Z" fill="#53C1DE"/>
<path fill-rule="evenodd" clip-rule="evenodd" d="M264.566 160.566C269.87 139.67 276.536 100.92 253.035 87.7827C229.643 74.7026 199.204 99.7665 183.13 114.811C167.104 99.9164 135.809 74.9597 112.328 88.1388C88.9454 101.263 96.156 139.37 101.577 160.397C79.7654 166.404 42.375 179.341 42.375 205.774C42.375 232.132 79.7265 246.207 101.409 252.208C95.9679 273.352 89.1184 310.915 112.531 324.01C136.1 337.186 167.297 312.823 183.519 297.614C199.696 312.747 229.843 337.27 253.239 324.138C276.709 310.965 270.596 272.735 265.175 251.586C286.193 245.572 323.625 231.803 323.625 205.774C323.625 179.595 286.034 166.553 264.566 160.566ZM261.902 240.378C258.342 229.452 253.538 217.834 247.66 205.832C253.27 194.113 257.888 182.645 261.349 171.79C277.087 176.214 311.611 186.325 311.611 205.774C311.611 225.406 278.481 235.613 261.902 240.378ZM247.219 314.056C229.763 323.853 203.832 300.402 191.886 289.258C199.811 280.854 207.731 271.083 215.461 260.233C229.058 259.064 241.903 257.152 253.553 254.541C257.368 269.501 264.752 304.215 247.219 314.056ZM118.534 313.917C101.076 304.156 109.055 270.637 113.058 255.062C124.578 257.533 137.331 259.311 150.96 260.382C158.74 270.999 166.89 280.757 175.103 289.303C164.956 298.82 136.073 323.722 118.534 313.917ZM54.389 205.774C54.389 186.069 88.7069 176.031 104.803 171.618C108.324 182.717 112.94 194.322 118.512 206.058C112.868 217.968 108.185 229.757 104.633 240.987C89.2846 236.727 54.389 225.492 54.389 205.774ZM118.347 98.2207C135.877 88.3827 163.075 112.342 174.712 123.126C166.541 131.633 158.467 141.318 150.753 151.873C137.526 153.062 124.863 154.971 113.223 157.528C108.855 140.569 100.837 108.048 118.347 98.2207ZM224.056 164.535C233.03 165.633 241.628 167.094 249.7 168.881C247.277 176.412 244.256 184.288 240.698 192.362C235.541 182.875 230.005 173.577 224.056 164.535ZM183.134 131.451C188.676 137.272 194.226 143.772 199.686 150.823C188.611 150.315 177.518 150.313 166.444 150.816C171.908 143.829 177.506 137.339 183.134 131.451ZM125.405 192.354C121.906 184.308 118.912 176.397 116.468 168.758C124.492 167.017 133.05 165.594 141.966 164.514C135.999 173.536 130.473 182.83 125.405 192.354ZM142.222 247.866C133.012 246.869 124.324 245.518 116.302 243.825C118.785 236.052 121.845 227.97 125.418 219.751C130.556 229.375 136.167 238.758 142.222 247.866ZM183.467 280.92C177.773 274.962 172.092 268.373 166.545 261.285C177.682 261.709 188.842 261.71 199.978 261.228C194.501 268.445 188.971 275.044 183.467 280.92ZM240.813 219.333C244.572 227.641 247.741 235.678 250.258 243.321C242.103 245.126 233.299 246.579 224.022 247.658C230.016 238.444 235.64 229.002 240.813 219.333ZM208.756 249.07C191.72 250.25 174.578 250.237 157.536 249.166C147.852 235.452 139.232 221.028 131.791 206.054C139.196 191.112 147.754 176.716 157.391 163.023C174.445 161.773 191.604 161.77 208.658 163.031C218.213 176.723 226.758 191.081 234.335 205.888C226.848 220.824 218.245 235.248 208.756 249.07ZM247.034 97.8744C264.568 107.68 256.763 142.506 252.933 157.649C241.265 155.038 228.593 153.096 215.328 151.888C207.599 141.219 199.592 131.517 191.554 123.12C203.339 112.104 229.67 88.1646 247.034 97.8744Z" fill="#53C1DE"/>
</g>
<g clip-path="url(#clip0_57_77)" filter="url(#filter1_d_57_77)">
<path fill-rule="evenodd" clip-rule="evenodd" d="M524.477 108.519H566.242L592.192 152.539L618.4 108.519H659.795L592.192 227.389L524.477 108.519Z" fill="#435466"/>
<path fill-rule="evenodd" clip-rule="evenodd" d="M479.917 108.519L592.192 304.667L705.283 108.519H659.795L592.192 227.389L524.476 108.519H479.917Z" fill="#4DBA87"/>
</g>
<g filter="url(#filter2_d_57_77)">
<line x1="387.5" y1="326" x2="387.574" y2="71.9994" stroke="black" stroke-opacity="0.36" shape-rendering="crispEdges"/>
</g>
<defs>
<filter id="filter0_d_57_77" x="27" y="56" width="312" height="316" filterUnits="userSpaceOnUse" color-interpolation-filters="sRGB">
<feFlood flood-opacity="0" result="BackgroundImageFix"/>
<feColorMatrix in="SourceAlpha" type="matrix" values="0 0 0 0 0 0 0 0 0 0 0 0 0 0 0 0 0 0 127 0" result="hardAlpha"/>
<feMorphology radius="2" operator="dilate" in="SourceAlpha" result="effect1_dropShadow_57_77"/>
<feOffset dy="10"/>
<feGaussianBlur stdDeviation="2"/>
<feComposite in2="hardAlpha" operator="out"/>
<feColorMatrix type="matrix" values="0 0 0 0 0 0 0 0 0 0 0 0 0 0 0 0 0 0 0.37 0"/>
<feBlend mode="normal" in2="BackgroundImageFix" result="effect1_dropShadow_57_77"/>
<feBlend mode="normal" in="SourceGraphic" in2="effect1_dropShadow_57_77" result="shape"/>
</filter>
<filter id="filter1_d_57_77" x="436" y="56" width="312" height="316" filterUnits="userSpaceOnUse" color-interpolation-filters="sRGB">
<feFlood flood-opacity="0" result="BackgroundImageFix"/>
<feColorMatrix in="SourceAlpha" type="matrix" values="0 0 0 0 0 0 0 0 0 0 0 0 0 0 0 0 0 0 127 0" result="hardAlpha"/>
<feMorphology radius="2" operator="dilate" in="SourceAlpha" result="effect1_dropShadow_57_77"/>
<feOffset dy="10"/>
<feGaussianBlur stdDeviation="2"/>
<feComposite in2="hardAlpha" operator="out"/>
<feColorMatrix type="matrix" values="0 0 0 0 0 0 0 0 0 0 0 0 0 0 0 0 0 0 0.25 0"/>
<feBlend mode="normal" in2="BackgroundImageFix" result="effect1_dropShadow_57_77"/>
<feBlend mode="normal" in="SourceGraphic" in2="effect1_dropShadow_57_77" result="shape"/>
</filter>
<filter id="filter2_d_57_77" x="383" y="71.9993" width="9.07422" height="278.001" filterUnits="userSpaceOnUse" color-interpolation-filters="sRGB">
<feFlood flood-opacity="0" result="BackgroundImageFix"/>
<feColorMatrix in="SourceAlpha" type="matrix" values="0 0 0 0 0 0 0 0 0 0 0 0 0 0 0 0 0 0 127 0" result="hardAlpha"/>
<feOffset dy="20"/>
<feGaussianBlur stdDeviation="2"/>
<feComposite in2="hardAlpha" operator="out"/>
<feColorMatrix type="matrix" values="0 0 0 0 0 0 0 0 0 0 0 0 0 0 0 0 0 0 0.25 0"/>
<feBlend mode="normal" in2="BackgroundImageFix" result="effect1_dropShadow_57_77"/>
<feBlend mode="normal" in="SourceGraphic" in2="effect1_dropShadow_57_77" result="shape"/>
</filter>
<clipPath id="clip0_57_77">
<rect width="300" height="300" fill="white" transform="translate(442 56)"/>
</clipPath>
</defs>
</svg>
