<svg width="396" height="396" viewBox="0 0 396 396" fill="none" xmlns="http://www.w3.org/2000/svg">
<g filter="url(#filter0_d_13_36)">
<g filter="url(#filter1_i_13_36)">
<path d="M317.272 340.612C319.015 342.754 318.695 345.909 316.508 347.596C290.65 367.548 260.149 380.665 227.824 385.694C193.85 390.98 159.082 387.141 127.079 374.572C95.0765 362.003 66.9892 341.154 45.6932 314.161C24.3972 287.168 10.6576 255 5.88118 220.951C1.10476 186.902 5.46315 152.195 18.5101 120.384C31.557 88.573 52.8238 60.801 80.1328 39.9114C107.442 19.0219 139.812 5.7654 173.929 1.49925C206.39 -2.55991 239.323 1.6588 269.673 13.7252C272.239 14.7454 273.415 17.6905 272.329 20.2294L199.188 191.222C198.458 192.93 198.734 194.903 199.907 196.344L317.272 340.612Z" fill="url(#paint0_linear_13_36)"/>
</g>
<path d="M73.0284 178.42V182.512H60.0484V191.532H70.1684V195.624H60.0484V209H55.0324V178.42H73.0284ZM82.693 188.276C83.4263 187.044 84.3943 186.091 85.597 185.416C86.829 184.712 88.281 184.36 89.953 184.36V189.552H88.677C86.7116 189.552 85.2156 190.051 84.189 191.048C83.1916 192.045 82.693 193.776 82.693 196.24V209H77.677V184.756H82.693V188.276ZM105.08 209.396C102.792 209.396 100.724 208.883 98.8757 207.856C97.0277 206.8 95.5757 205.333 94.5197 203.456C93.4637 201.549 92.9357 199.349 92.9357 196.856C92.9357 194.392 93.4783 192.207 94.5637 190.3C95.649 188.393 97.1303 186.927 99.0077 185.9C100.885 184.873 102.982 184.36 105.3 184.36C107.617 184.36 109.714 184.873 111.592 185.9C113.469 186.927 114.95 188.393 116.036 190.3C117.121 192.207 117.664 194.392 117.664 196.856C117.664 199.32 117.106 201.505 115.992 203.412C114.877 205.319 113.352 206.8 111.416 207.856C109.509 208.883 107.397 209.396 105.08 209.396ZM105.08 205.04C106.37 205.04 107.573 204.732 108.688 204.116C109.832 203.5 110.756 202.576 111.46 201.344C112.164 200.112 112.516 198.616 112.516 196.856C112.516 195.096 112.178 193.615 111.504 192.412C110.829 191.18 109.934 190.256 108.82 189.64C107.705 189.024 106.502 188.716 105.212 188.716C103.921 188.716 102.718 189.024 101.604 189.64C100.518 190.256 99.653 191.18 99.0077 192.412C98.3623 193.615 98.0397 195.096 98.0397 196.856C98.0397 199.467 98.6997 201.491 100.02 202.928C101.369 204.336 103.056 205.04 105.08 205.04ZM134.854 184.36C136.761 184.36 138.462 184.756 139.958 185.548C141.484 186.34 142.672 187.513 143.522 189.068C144.373 190.623 144.798 192.5 144.798 194.7V209H139.826V195.448C139.826 193.277 139.284 191.62 138.198 190.476C137.113 189.303 135.632 188.716 133.754 188.716C131.877 188.716 130.381 189.303 129.266 190.476C128.181 191.62 127.638 193.277 127.638 195.448V209H122.622V184.756H127.638V187.528C128.46 186.531 129.501 185.753 130.762 185.196C132.053 184.639 133.417 184.36 134.854 184.36ZM157.048 188.848V202.268C157.048 203.177 157.254 203.837 157.664 204.248C158.104 204.629 158.838 204.82 159.864 204.82H162.944V209H158.984C156.726 209 154.995 208.472 153.792 207.416C152.59 206.36 151.988 204.644 151.988 202.268V188.848H149.128V184.756H151.988V178.728H157.048V184.756H162.944V188.848H157.048Z" fill="url(#paint1_linear_13_36)"/>
<g filter="url(#filter2_i_13_36)">
<path d="M319.061 315.595C321.449 318.499 325.859 318.848 328.575 316.233C346.909 298.584 361.044 276.723 369.822 252.368C379.399 225.796 382.282 197.132 378.197 169.084C374.112 141.035 363.194 114.53 346.476 92.071C331.155 71.4882 311.424 54.9274 288.884 43.6739C285.523 41.9964 281.47 43.5795 280.052 46.9938L220.485 190.466C219.583 192.639 219.956 195.119 221.461 196.948L319.061 315.595Z" fill="url(#paint2_linear_13_36)"/>
</g>
<path d="M279.392 191.788C280.736 192.028 281.876 192.736 282.812 193.912C283.748 195.088 284.216 196.42 284.216 197.908C284.216 199.18 283.88 200.332 283.208 201.364C282.56 202.372 281.612 203.176 280.364 203.776C279.116 204.352 277.664 204.64 276.008 204.64H266V179.62H275.54C277.244 179.62 278.708 179.908 279.932 180.484C281.156 181.06 282.08 181.84 282.704 182.824C283.328 183.784 283.64 184.864 283.64 186.064C283.64 187.504 283.256 188.704 282.488 189.664C281.72 190.624 280.688 191.332 279.392 191.788ZM270.104 190.132H275.18C276.524 190.132 277.568 189.832 278.312 189.232C279.08 188.608 279.464 187.72 279.464 186.568C279.464 185.44 279.08 184.564 278.312 183.94C277.568 183.292 276.524 182.968 275.18 182.968H270.104V190.132ZM275.648 201.292C277.04 201.292 278.132 200.956 278.924 200.284C279.716 199.612 280.112 198.676 280.112 197.476C280.112 196.252 279.692 195.28 278.852 194.56C278.012 193.84 276.896 193.48 275.504 193.48H270.104V201.292H275.648ZM287.308 194.632C287.308 192.64 287.716 190.876 288.532 189.34C289.372 187.804 290.5 186.616 291.916 185.776C293.356 184.912 294.94 184.48 296.668 184.48C298.228 184.48 299.584 184.792 300.736 185.416C301.912 186.016 302.848 186.772 303.544 187.684V184.804H307.684V204.64H303.544V201.688C302.848 202.624 301.9 203.404 300.7 204.028C299.5 204.652 298.132 204.964 296.596 204.964C294.892 204.964 293.332 204.532 291.916 203.668C290.5 202.78 289.372 201.556 288.532 199.996C287.716 198.412 287.308 196.624 287.308 194.632ZM303.544 194.704C303.544 193.336 303.256 192.148 302.68 191.14C302.128 190.132 301.396 189.364 300.484 188.836C299.572 188.308 298.588 188.044 297.532 188.044C296.476 188.044 295.492 188.308 294.58 188.836C293.668 189.34 292.924 190.096 292.348 191.104C291.796 192.088 291.52 193.264 291.52 194.632C291.52 196 291.796 197.2 292.348 198.232C292.924 199.264 293.668 200.056 294.58 200.608C295.516 201.136 296.5 201.4 297.532 201.4C298.588 201.4 299.572 201.136 300.484 200.608C301.396 200.08 302.128 199.312 302.68 198.304C303.256 197.272 303.544 196.072 303.544 194.704ZM311.706 194.704C311.706 192.664 312.114 190.876 312.93 189.34C313.77 187.78 314.922 186.58 316.386 185.74C317.85 184.9 319.53 184.48 321.426 184.48C323.826 184.48 325.806 185.056 327.366 186.208C328.95 187.336 330.018 188.956 330.57 191.068H326.142C325.782 190.084 325.206 189.316 324.414 188.764C323.622 188.212 322.626 187.936 321.426 187.936C319.746 187.936 318.402 188.536 317.394 189.736C316.41 190.912 315.918 192.568 315.918 194.704C315.918 196.84 316.41 198.508 317.394 199.708C318.402 200.908 319.746 201.508 321.426 201.508C323.802 201.508 325.374 200.464 326.142 198.376H330.57C329.994 200.392 328.914 202 327.33 203.2C325.746 204.376 323.778 204.964 321.426 204.964C319.53 204.964 317.85 204.544 316.386 203.704C314.922 202.84 313.77 201.64 312.93 200.104C312.114 198.544 311.706 196.744 311.706 194.704ZM342.508 194.74L351.652 204.64H346.108L338.764 196.108V204.64H334.66V178H338.764V193.48L345.964 184.804H351.652L342.508 194.74Z" fill="white"/>
</g>
<defs>
<filter id="filter0_d_13_36" x="3.8147e-06" y="0" width="384" height="396" filterUnits="userSpaceOnUse" color-interpolation-filters="sRGB">
<feFlood flood-opacity="0" result="BackgroundImageFix"/>
<feColorMatrix in="SourceAlpha" type="matrix" values="0 0 0 0 0 0 0 0 0 0 0 0 0 0 0 0 0 0 127 0" result="hardAlpha"/>
<feOffset dy="4"/>
<feGaussianBlur stdDeviation="2"/>
<feComposite in2="hardAlpha" operator="out"/>
<feColorMatrix type="matrix" values="0 0 0 0 0 0 0 0 0 0 0 0 0 0 0 0 0 0 0.25 0"/>
<feBlend mode="normal" in2="BackgroundImageFix" result="effect1_dropShadow_13_36"/>
<feBlend mode="normal" in="SourceGraphic" in2="effect1_dropShadow_13_36" result="shape"/>
</filter>
<filter id="filter1_i_13_36" x="4" y="0" width="314.392" height="392" filterUnits="userSpaceOnUse" color-interpolation-filters="sRGB">
<feFlood flood-opacity="0" result="BackgroundImageFix"/>
<feBlend mode="normal" in="SourceGraphic" in2="BackgroundImageFix" result="shape"/>
<feColorMatrix in="SourceAlpha" type="matrix" values="0 0 0 0 0 0 0 0 0 0 0 0 0 0 0 0 0 0 127 0" result="hardAlpha"/>
<feOffset dy="4"/>
<feGaussianBlur stdDeviation="2"/>
<feComposite in2="hardAlpha" operator="arithmetic" k2="-1" k3="1"/>
<feColorMatrix type="matrix" values="0 0 0 0 0 0 0 0 0 0 0 0 0 0 0 0 0 0 0.25 0"/>
<feBlend mode="normal" in2="shape" result="effect1_innerShadow_13_36"/>
</filter>
<filter id="filter2_i_13_36" x="220" y="43" width="160" height="279" filterUnits="userSpaceOnUse" color-interpolation-filters="sRGB">
<feFlood flood-opacity="0" result="BackgroundImageFix"/>
<feBlend mode="normal" in="SourceGraphic" in2="BackgroundImageFix" result="shape"/>
<feColorMatrix in="SourceAlpha" type="matrix" values="0 0 0 0 0 0 0 0 0 0 0 0 0 0 0 0 0 0 127 0" result="hardAlpha"/>
<feOffset dy="4"/>
<feGaussianBlur stdDeviation="2"/>
<feComposite in2="hardAlpha" operator="arithmetic" k2="-1" k3="1"/>
<feColorMatrix type="matrix" values="0 0 0 0 0 0 0 0 0 0 0 0 0 0 0 0 0 0 0.25 0"/>
<feBlend mode="normal" in2="shape" result="effect1_innerShadow_13_36"/>
</filter>
<linearGradient id="paint0_linear_13_36" x1="162.214" y1="-2.30457e-06" x2="162.214" y2="388" gradientUnits="userSpaceOnUse">
<stop stop-color="#D1D1D1"/>
<stop offset="0.355" stop-color="#9E9E9E"/>
<stop offset="1" stop-color="#6B6B6B"/>
</linearGradient>
<linearGradient id="paint1_linear_13_36" x1="108" y1="161" x2="108" y2="227" gradientUnits="userSpaceOnUse">
<stop stop-color="white"/>
<stop offset="0.0001" stop-color="#E8E8E8"/>
<stop offset="0.2" stop-color="#D4D4D4"/>
<stop offset="0.545" stop-color="white"/>
<stop offset="0.9999" stop-color="white"/>
<stop offset="1" stop-color="#9D9D9D" stop-opacity="0.52"/>
</linearGradient>
<linearGradient id="paint2_linear_13_36" x1="219.024" y1="27.144" x2="219.024" y2="360.828" gradientUnits="userSpaceOnUse">
<stop stop-opacity="0.5"/>
<stop offset="0.0001" stop-color="#030303"/>
<stop offset="0.315" stop-color="#343434"/>
<stop offset="0.53" stop-color="#343434"/>
<stop offset="1" stop-color="#666666"/>
</linearGradient>
</defs>
</svg>
