<svg width="396" height="396" viewBox="0 0 396 396" fill="none" xmlns="http://www.w3.org/2000/svg">
<g filter="url(#filter0_d_12_32)">
<g filter="url(#filter1_i_12_32)">
<path d="M317.272 340.612C319.015 342.754 318.695 345.909 316.508 347.596C290.65 367.548 260.149 380.665 227.824 385.694C193.85 390.98 159.082 387.141 127.079 374.572C95.0765 362.003 66.9892 341.154 45.6932 314.161C24.3972 287.168 10.6576 255 5.88118 220.951C1.10476 186.902 5.46315 152.195 18.5101 120.384C31.557 88.573 52.8238 60.801 80.1328 39.9114C107.442 19.0219 139.812 5.7654 173.929 1.49925C206.39 -2.55991 239.323 1.6588 269.673 13.7252C272.239 14.7454 273.415 17.6905 272.329 20.2294L199.188 191.222C198.458 192.93 198.734 194.903 199.907 196.344L317.272 340.612Z" fill="url(#paint0_linear_12_32)"/>
</g>
<path d="M73.0284 178.42V182.512H60.0484V191.532H70.1684V195.624H60.0484V209H55.0324V178.42H73.0284ZM82.693 188.276C83.4263 187.044 84.3943 186.091 85.597 185.416C86.829 184.712 88.281 184.36 89.953 184.36V189.552H88.677C86.7116 189.552 85.2156 190.051 84.189 191.048C83.1916 192.045 82.693 193.776 82.693 196.24V209H77.677V184.756H82.693V188.276ZM105.08 209.396C102.792 209.396 100.724 208.883 98.8757 207.856C97.0277 206.8 95.5757 205.333 94.5197 203.456C93.4637 201.549 92.9357 199.349 92.9357 196.856C92.9357 194.392 93.4783 192.207 94.5637 190.3C95.649 188.393 97.1303 186.927 99.0077 185.9C100.885 184.873 102.982 184.36 105.3 184.36C107.617 184.36 109.714 184.873 111.592 185.9C113.469 186.927 114.95 188.393 116.036 190.3C117.121 192.207 117.664 194.392 117.664 196.856C117.664 199.32 117.106 201.505 115.992 203.412C114.877 205.319 113.352 206.8 111.416 207.856C109.509 208.883 107.397 209.396 105.08 209.396ZM105.08 205.04C106.37 205.04 107.573 204.732 108.688 204.116C109.832 203.5 110.756 202.576 111.46 201.344C112.164 200.112 112.516 198.616 112.516 196.856C112.516 195.096 112.178 193.615 111.504 192.412C110.829 191.18 109.934 190.256 108.82 189.64C107.705 189.024 106.502 188.716 105.212 188.716C103.921 188.716 102.718 189.024 101.604 189.64C100.518 190.256 99.653 191.18 99.0077 192.412C98.3623 193.615 98.0397 195.096 98.0397 196.856C98.0397 199.467 98.6997 201.491 100.02 202.928C101.369 204.336 103.056 205.04 105.08 205.04ZM134.854 184.36C136.761 184.36 138.462 184.756 139.958 185.548C141.484 186.34 142.672 187.513 143.522 189.068C144.373 190.623 144.798 192.5 144.798 194.7V209H139.826V195.448C139.826 193.277 139.284 191.62 138.198 190.476C137.113 189.303 135.632 188.716 133.754 188.716C131.877 188.716 130.381 189.303 129.266 190.476C128.181 191.62 127.638 193.277 127.638 195.448V209H122.622V184.756H127.638V187.528C128.46 186.531 129.501 185.753 130.762 185.196C132.053 184.639 133.417 184.36 134.854 184.36ZM157.048 188.848V202.268C157.048 203.177 157.254 203.837 157.664 204.248C158.104 204.629 158.838 204.82 159.864 204.82H162.944V209H158.984C156.726 209 154.995 208.472 153.792 207.416C152.59 206.36 151.988 204.644 151.988 202.268V188.848H149.128V184.756H151.988V178.728H157.048V184.756H162.944V188.848H157.048Z" fill="url(#paint1_linear_12_32)"/>
<g filter="url(#filter2_i_12_32)">
<path d="M327.645 326.064C330.167 329.205 334.824 329.583 337.692 326.754C357.054 307.66 371.982 284.01 381.252 257.661C391.366 228.914 394.41 197.903 390.096 167.559C385.782 137.214 374.252 108.539 356.597 84.242C340.417 61.9743 319.58 44.0578 295.776 31.8831C292.227 30.0683 287.946 31.781 286.449 35.4747L223.543 190.692C222.59 193.043 222.984 195.726 224.573 197.704L327.645 326.064Z" fill="url(#paint2_linear_12_32)"/>
</g>
<mask id="path-4-outside-1_12_32" maskUnits="userSpaceOnUse" x="270" y="176" width="90" height="30" fill="black">
<rect fill="white" x="270" y="176" width="90" height="30"/>
<path d="M285.295 191.148C286.639 191.388 287.779 192.096 288.715 193.272C289.651 194.448 290.119 195.78 290.119 197.268C290.119 198.54 289.783 199.692 289.111 200.724C288.463 201.732 287.515 202.536 286.267 203.136C285.019 203.712 283.567 204 281.911 204H271.903V178.98H281.443C283.147 178.98 284.611 179.268 285.835 179.844C287.059 180.42 287.983 181.2 288.607 182.184C289.231 183.144 289.543 184.224 289.543 185.424C289.543 186.864 289.159 188.064 288.391 189.024C287.623 189.984 286.591 190.692 285.295 191.148ZM276.007 189.492H281.083C282.427 189.492 283.471 189.192 284.215 188.592C284.983 187.968 285.367 187.08 285.367 185.928C285.367 184.8 284.983 183.924 284.215 183.3C283.471 182.652 282.427 182.328 281.083 182.328H276.007V189.492ZM281.551 200.652C282.943 200.652 284.035 200.316 284.827 199.644C285.619 198.972 286.015 198.036 286.015 196.836C286.015 195.612 285.595 194.64 284.755 193.92C283.915 193.2 282.799 192.84 281.407 192.84H276.007V200.652H281.551ZM293.211 193.992C293.211 192 293.619 190.236 294.435 188.7C295.275 187.164 296.403 185.976 297.819 185.136C299.259 184.272 300.843 183.84 302.571 183.84C304.131 183.84 305.487 184.152 306.639 184.776C307.815 185.376 308.751 186.132 309.447 187.044V184.164H313.587V204H309.447V201.048C308.751 201.984 307.803 202.764 306.603 203.388C305.403 204.012 304.035 204.324 302.499 204.324C300.795 204.324 299.235 203.892 297.819 203.028C296.403 202.14 295.275 200.916 294.435 199.356C293.619 197.772 293.211 195.984 293.211 193.992ZM309.447 194.064C309.447 192.696 309.159 191.508 308.583 190.5C308.031 189.492 307.299 188.724 306.387 188.196C305.475 187.668 304.491 187.404 303.435 187.404C302.379 187.404 301.395 187.668 300.483 188.196C299.571 188.7 298.827 189.456 298.251 190.464C297.699 191.448 297.423 192.624 297.423 193.992C297.423 195.36 297.699 196.56 298.251 197.592C298.827 198.624 299.571 199.416 300.483 199.968C301.419 200.496 302.403 200.76 303.435 200.76C304.491 200.76 305.475 200.496 306.387 199.968C307.299 199.44 308.031 198.672 308.583 197.664C309.159 196.632 309.447 195.432 309.447 194.064ZM317.609 194.064C317.609 192.024 318.017 190.236 318.833 188.7C319.673 187.14 320.825 185.94 322.289 185.1C323.753 184.26 325.433 183.84 327.329 183.84C329.729 183.84 331.709 184.416 333.269 185.568C334.853 186.696 335.921 188.316 336.473 190.428H332.045C331.685 189.444 331.109 188.676 330.317 188.124C329.525 187.572 328.529 187.296 327.329 187.296C325.649 187.296 324.305 187.896 323.297 189.096C322.313 190.272 321.821 191.928 321.821 194.064C321.821 196.2 322.313 197.868 323.297 199.068C324.305 200.268 325.649 200.868 327.329 200.868C329.705 200.868 331.277 199.824 332.045 197.736H336.473C335.897 199.752 334.817 201.36 333.233 202.56C331.649 203.736 329.681 204.324 327.329 204.324C325.433 204.324 323.753 203.904 322.289 203.064C320.825 202.2 319.673 201 318.833 199.464C318.017 197.904 317.609 196.104 317.609 194.064ZM348.411 194.1L357.555 204H352.011L344.667 195.468V204H340.563V177.36H344.667V192.84L351.867 184.164H357.555L348.411 194.1Z"/>
</mask>
<path d="M285.295 191.148C286.639 191.388 287.779 192.096 288.715 193.272C289.651 194.448 290.119 195.78 290.119 197.268C290.119 198.54 289.783 199.692 289.111 200.724C288.463 201.732 287.515 202.536 286.267 203.136C285.019 203.712 283.567 204 281.911 204H271.903V178.98H281.443C283.147 178.98 284.611 179.268 285.835 179.844C287.059 180.42 287.983 181.2 288.607 182.184C289.231 183.144 289.543 184.224 289.543 185.424C289.543 186.864 289.159 188.064 288.391 189.024C287.623 189.984 286.591 190.692 285.295 191.148ZM276.007 189.492H281.083C282.427 189.492 283.471 189.192 284.215 188.592C284.983 187.968 285.367 187.08 285.367 185.928C285.367 184.8 284.983 183.924 284.215 183.3C283.471 182.652 282.427 182.328 281.083 182.328H276.007V189.492ZM281.551 200.652C282.943 200.652 284.035 200.316 284.827 199.644C285.619 198.972 286.015 198.036 286.015 196.836C286.015 195.612 285.595 194.64 284.755 193.92C283.915 193.2 282.799 192.84 281.407 192.84H276.007V200.652H281.551ZM293.211 193.992C293.211 192 293.619 190.236 294.435 188.7C295.275 187.164 296.403 185.976 297.819 185.136C299.259 184.272 300.843 183.84 302.571 183.84C304.131 183.84 305.487 184.152 306.639 184.776C307.815 185.376 308.751 186.132 309.447 187.044V184.164H313.587V204H309.447V201.048C308.751 201.984 307.803 202.764 306.603 203.388C305.403 204.012 304.035 204.324 302.499 204.324C300.795 204.324 299.235 203.892 297.819 203.028C296.403 202.14 295.275 200.916 294.435 199.356C293.619 197.772 293.211 195.984 293.211 193.992ZM309.447 194.064C309.447 192.696 309.159 191.508 308.583 190.5C308.031 189.492 307.299 188.724 306.387 188.196C305.475 187.668 304.491 187.404 303.435 187.404C302.379 187.404 301.395 187.668 300.483 188.196C299.571 188.7 298.827 189.456 298.251 190.464C297.699 191.448 297.423 192.624 297.423 193.992C297.423 195.36 297.699 196.56 298.251 197.592C298.827 198.624 299.571 199.416 300.483 199.968C301.419 200.496 302.403 200.76 303.435 200.76C304.491 200.76 305.475 200.496 306.387 199.968C307.299 199.44 308.031 198.672 308.583 197.664C309.159 196.632 309.447 195.432 309.447 194.064ZM317.609 194.064C317.609 192.024 318.017 190.236 318.833 188.7C319.673 187.14 320.825 185.94 322.289 185.1C323.753 184.26 325.433 183.84 327.329 183.84C329.729 183.84 331.709 184.416 333.269 185.568C334.853 186.696 335.921 188.316 336.473 190.428H332.045C331.685 189.444 331.109 188.676 330.317 188.124C329.525 187.572 328.529 187.296 327.329 187.296C325.649 187.296 324.305 187.896 323.297 189.096C322.313 190.272 321.821 191.928 321.821 194.064C321.821 196.2 322.313 197.868 323.297 199.068C324.305 200.268 325.649 200.868 327.329 200.868C329.705 200.868 331.277 199.824 332.045 197.736H336.473C335.897 199.752 334.817 201.36 333.233 202.56C331.649 203.736 329.681 204.324 327.329 204.324C325.433 204.324 323.753 203.904 322.289 203.064C320.825 202.2 319.673 201 318.833 199.464C318.017 197.904 317.609 196.104 317.609 194.064ZM348.411 194.1L357.555 204H352.011L344.667 195.468V204H340.563V177.36H344.667V192.84L351.867 184.164H357.555L348.411 194.1Z" fill="white"/>
<path d="M285.295 191.148L284.963 190.205L281.381 191.465L285.119 192.132L285.295 191.148ZM288.715 193.272L289.498 192.649L289.498 192.649L288.715 193.272ZM289.111 200.724L288.273 200.178L288.27 200.183L289.111 200.724ZM286.267 203.136L286.686 204.044L286.693 204.041L286.7 204.037L286.267 203.136ZM271.903 204H270.903V205H271.903V204ZM271.903 178.98V177.98H270.903V178.98H271.903ZM285.835 179.844L285.409 180.749L285.409 180.749L285.835 179.844ZM288.607 182.184L287.763 182.72L287.769 182.729L288.607 182.184ZM288.391 189.024L289.172 189.649L289.172 189.649L288.391 189.024ZM276.007 189.492H275.007V190.492H276.007V189.492ZM284.215 188.592L284.843 189.37L284.846 189.368L284.215 188.592ZM284.215 183.3L283.558 184.054L283.571 184.065L283.585 184.076L284.215 183.3ZM276.007 182.328V181.328H275.007V182.328H276.007ZM284.827 199.644L284.18 198.881L284.18 198.881L284.827 199.644ZM276.007 192.84V191.84H275.007V192.84H276.007ZM276.007 200.652H275.007V201.652H276.007V200.652ZM285.119 192.132C286.199 192.325 287.132 192.888 287.933 193.895L289.498 192.649C288.427 191.304 287.079 190.451 285.471 190.164L285.119 192.132ZM287.933 193.895C288.729 194.896 289.119 196.009 289.119 197.268H291.119C291.119 195.551 290.573 194 289.498 192.649L287.933 193.895ZM289.119 197.268C289.119 198.353 288.836 199.314 288.273 200.178L289.949 201.27C290.73 200.07 291.119 198.727 291.119 197.268H289.119ZM288.27 200.183C287.737 201.013 286.942 201.702 285.834 202.235L286.7 204.037C288.089 203.37 289.19 202.451 289.952 201.265L288.27 200.183ZM285.848 202.228C284.756 202.732 283.452 203 281.911 203V205C283.683 205 285.283 204.692 286.686 204.044L285.848 202.228ZM281.911 203H271.903V205H281.911V203ZM272.903 204V178.98H270.903V204H272.903ZM271.903 179.98H281.443V177.98H271.903V179.98ZM281.443 179.98C283.037 179.98 284.348 180.25 285.409 180.749L286.261 178.939C284.874 178.286 283.257 177.98 281.443 177.98V179.98ZM285.409 180.749C286.49 181.257 287.256 181.92 287.763 182.72L289.452 181.648C288.71 180.48 287.629 179.583 286.261 178.939L285.409 180.749ZM287.769 182.729C288.282 183.519 288.543 184.408 288.543 185.424H290.543C290.543 184.04 290.18 182.769 289.446 181.639L287.769 182.729ZM288.543 185.424C288.543 186.678 288.213 187.646 287.61 188.399L289.172 189.649C290.105 188.482 290.543 187.05 290.543 185.424H288.543ZM287.61 188.399C286.973 189.196 286.104 189.803 284.963 190.205L285.627 192.091C287.078 191.581 288.274 190.772 289.172 189.649L287.61 188.399ZM276.007 190.492H281.083V188.492H276.007V190.492ZM281.083 190.492C282.564 190.492 283.861 190.162 284.843 189.37L283.587 187.814C283.081 188.222 282.29 188.492 281.083 188.492V190.492ZM284.846 189.368C285.887 188.522 286.367 187.326 286.367 185.928H284.367C284.367 186.834 284.079 187.414 283.585 187.816L284.846 189.368ZM286.367 185.928C286.367 184.546 285.882 183.366 284.846 182.524L283.585 184.076C284.084 184.482 284.367 185.054 284.367 185.928H286.367ZM284.872 182.546C283.889 181.69 282.581 181.328 281.083 181.328V183.328C282.274 183.328 283.053 183.614 283.558 184.054L284.872 182.546ZM281.083 181.328H276.007V183.328H281.083V181.328ZM275.007 182.328V189.492H277.007V182.328H275.007ZM281.551 201.652C283.099 201.652 284.448 201.277 285.474 200.407L284.18 198.881C283.622 199.355 282.787 199.652 281.551 199.652V201.652ZM285.474 200.407C286.526 199.514 287.015 198.279 287.015 196.836H285.015C285.015 197.793 284.712 198.43 284.18 198.881L285.474 200.407ZM287.015 196.836C287.015 195.355 286.493 194.092 285.406 193.161L284.104 194.679C284.697 195.188 285.015 195.869 285.015 196.836H287.015ZM285.406 193.161C284.342 192.249 282.974 191.84 281.407 191.84V193.84C282.624 193.84 283.489 194.151 284.104 194.679L285.406 193.161ZM281.407 191.84H276.007V193.84H281.407V191.84ZM275.007 192.84V200.652H277.007V192.84H275.007ZM276.007 201.652H281.551V199.652H276.007V201.652ZM294.435 188.7L293.557 188.22L293.552 188.231L294.435 188.7ZM297.819 185.136L298.329 185.996L298.333 185.993L297.819 185.136ZM306.639 184.776L306.163 185.655L306.173 185.661L306.184 185.667L306.639 184.776ZM309.447 187.044L308.652 187.651L310.447 190.003V187.044H309.447ZM309.447 184.164V183.164H308.447V184.164H309.447ZM313.587 184.164H314.587V183.164H313.587V184.164ZM313.587 204V205H314.587V204H313.587ZM309.447 204H308.447V205H309.447V204ZM309.447 201.048H310.447V198.027L308.644 200.451L309.447 201.048ZM306.603 203.388L306.142 202.501L306.142 202.501L306.603 203.388ZM297.819 203.028L297.288 203.875L297.298 203.882L297.819 203.028ZM294.435 199.356L293.546 199.814L293.55 199.822L293.554 199.83L294.435 199.356ZM308.583 190.5L307.706 190.98L307.71 190.988L307.715 190.996L308.583 190.5ZM306.387 188.196L305.886 189.061L305.886 189.061L306.387 188.196ZM300.483 188.196L300.967 189.071L300.975 189.066L300.984 189.061L300.483 188.196ZM298.251 190.464L297.383 189.968L297.379 189.975L298.251 190.464ZM298.251 197.592L297.369 198.064L297.373 198.072L297.378 198.079L298.251 197.592ZM300.483 199.968L299.965 200.823L299.978 200.831L299.992 200.839L300.483 199.968ZM306.387 199.968L306.888 200.833L306.888 200.833L306.387 199.968ZM308.583 197.664L307.71 197.177L307.706 197.184L308.583 197.664ZM294.211 193.992C294.211 192.14 294.589 190.541 295.318 189.169L293.552 188.231C292.649 189.931 292.211 191.86 292.211 193.992H294.211ZM295.312 189.18C296.072 187.791 297.077 186.739 298.329 185.996L297.309 184.276C295.729 185.213 294.478 186.537 293.558 188.22L295.312 189.18ZM298.333 185.993C299.613 185.226 301.019 184.84 302.571 184.84V182.84C300.667 182.84 298.904 183.318 297.304 184.279L298.333 185.993ZM302.571 184.84C303.996 184.84 305.182 185.124 306.163 185.655L307.115 183.897C305.791 183.18 304.266 182.84 302.571 182.84V184.84ZM306.184 185.667C307.247 186.209 308.06 186.874 308.652 187.651L310.242 186.437C309.442 185.39 308.383 184.543 307.093 183.885L306.184 185.667ZM310.447 187.044V184.164H308.447V187.044H310.447ZM309.447 185.164H313.587V183.164H309.447V185.164ZM312.587 184.164V204H314.587V184.164H312.587ZM313.587 203H309.447V205H313.587V203ZM310.447 204V201.048H308.447V204H310.447ZM308.644 200.451C308.052 201.248 307.229 201.935 306.142 202.501L307.064 204.275C308.377 203.593 309.45 202.72 310.249 201.645L308.644 200.451ZM306.142 202.501C305.102 203.041 303.896 203.324 302.499 203.324V205.324C304.174 205.324 305.703 204.983 307.064 204.275L306.142 202.501ZM302.499 203.324C300.973 203.324 299.594 202.94 298.34 202.174L297.298 203.882C298.875 204.844 300.616 205.324 302.499 205.324V203.324ZM298.35 202.181C297.09 201.39 296.078 200.299 295.315 198.882L293.554 199.83C294.471 201.533 295.716 202.89 297.288 203.875L298.35 202.181ZM295.324 198.898C294.589 197.472 294.211 195.844 294.211 193.992H292.211C292.211 196.124 292.649 198.072 293.546 199.814L295.324 198.898ZM310.447 194.064C310.447 192.553 310.128 191.188 309.451 190.004L307.715 190.996C308.19 191.828 308.447 192.839 308.447 194.064H310.447ZM309.46 190.02C308.828 188.866 307.972 187.958 306.888 187.331L305.886 189.061C306.625 189.49 307.233 190.118 307.706 190.98L309.46 190.02ZM306.888 187.331C305.823 186.714 304.666 186.404 303.435 186.404V188.404C304.315 188.404 305.126 188.622 305.886 189.061L306.888 187.331ZM303.435 186.404C302.203 186.404 301.046 186.714 299.982 187.331L300.984 189.061C301.743 188.622 302.554 188.404 303.435 188.404V186.404ZM299.999 187.321C298.909 187.923 298.039 188.819 297.383 189.968L299.119 190.96C299.615 190.093 300.233 189.477 300.967 189.071L299.999 187.321ZM297.379 189.975C296.727 191.137 296.423 192.489 296.423 193.992H298.423C298.423 192.759 298.671 191.759 299.123 190.953L297.379 189.975ZM296.423 193.992C296.423 195.497 296.727 196.864 297.369 198.064L299.133 197.12C298.67 196.256 298.423 195.223 298.423 193.992H296.423ZM297.378 198.079C298.029 199.246 298.889 200.172 299.965 200.823L301.001 199.112C300.253 198.66 299.625 198.002 299.124 197.105L297.378 198.079ZM299.992 200.839C301.071 201.448 302.224 201.76 303.435 201.76V199.76C302.582 199.76 301.767 199.544 300.974 199.097L299.992 200.839ZM303.435 201.76C304.666 201.76 305.823 201.45 306.888 200.833L305.886 199.103C305.126 199.542 304.315 199.76 303.435 199.76V201.76ZM306.888 200.833C307.972 200.206 308.828 199.298 309.46 198.144L307.706 197.184C307.233 198.046 306.625 198.674 305.886 199.103L306.888 200.833ZM309.456 198.151C310.128 196.948 310.447 195.575 310.447 194.064H308.447C308.447 195.289 308.19 196.316 307.71 197.177L309.456 198.151ZM318.833 188.7L317.953 188.226L317.95 188.231L318.833 188.7ZM322.289 185.1L321.792 184.233L321.792 184.233L322.289 185.1ZM333.269 185.568L332.675 186.372L332.682 186.378L332.689 186.383L333.269 185.568ZM336.473 190.428V191.428H337.768L337.441 190.175L336.473 190.428ZM332.045 190.428L331.106 190.772L331.346 191.428H332.045V190.428ZM323.297 189.096L322.532 188.453L322.53 188.454L323.297 189.096ZM323.297 199.068L322.524 199.702L322.532 199.711L323.297 199.068ZM332.045 197.736V196.736H331.348L331.107 197.391L332.045 197.736ZM336.473 197.736L337.435 198.011L337.799 196.736H336.473V197.736ZM333.233 202.56L333.829 203.363L333.837 203.357L333.233 202.56ZM322.289 203.064L321.781 203.925L321.792 203.931L322.289 203.064ZM318.833 199.464L317.947 199.927L317.952 199.936L317.956 199.944L318.833 199.464ZM318.609 194.064C318.609 192.159 318.989 190.538 319.716 189.169L317.95 188.231C317.045 189.934 316.609 191.889 316.609 194.064H318.609ZM319.714 189.174C320.47 187.77 321.493 186.71 322.787 185.967L321.792 184.233C320.158 185.17 318.877 186.51 317.953 188.226L319.714 189.174ZM322.787 185.967C324.082 185.225 325.586 184.84 327.329 184.84V182.84C325.281 182.84 323.425 183.295 321.792 184.233L322.787 185.967ZM327.329 184.84C329.567 184.84 331.325 185.375 332.675 186.372L333.863 184.764C332.094 183.457 329.892 182.84 327.329 182.84V184.84ZM332.689 186.383C334.059 187.358 335.005 188.766 335.506 190.681L337.441 190.175C336.837 187.866 335.648 186.034 333.849 184.753L332.689 186.383ZM336.473 189.428H332.045V191.428H336.473V189.428ZM332.984 190.084C332.56 188.925 331.864 187.983 330.889 187.304L329.746 188.944C330.355 189.369 330.81 189.963 331.106 190.772L332.984 190.084ZM330.889 187.304C329.892 186.609 328.684 186.296 327.329 186.296V188.296C328.375 188.296 329.158 188.535 329.746 188.944L330.889 187.304ZM327.329 186.296C325.378 186.296 323.745 187.009 322.532 188.453L324.063 189.739C324.866 188.783 325.921 188.296 327.329 188.296V186.296ZM322.53 188.454C321.346 189.87 320.821 191.785 320.821 194.064H322.821C322.821 192.071 323.281 190.674 324.064 189.738L322.53 188.454ZM320.821 194.064C320.821 196.345 321.347 198.266 322.524 199.702L324.071 198.434C323.28 197.47 322.821 196.055 322.821 194.064H320.821ZM322.532 199.711C323.745 201.155 325.378 201.868 327.329 201.868V199.868C325.921 199.868 324.866 199.381 324.063 198.425L322.532 199.711ZM327.329 201.868C328.663 201.868 329.856 201.574 330.844 200.918C331.837 200.259 332.54 199.288 332.984 198.081L331.107 197.391C330.783 198.272 330.316 198.867 329.737 199.252C329.153 199.64 328.371 199.868 327.329 199.868V201.868ZM332.045 198.736H336.473V196.736H332.045V198.736ZM335.512 197.461C334.992 199.281 334.031 200.701 332.629 201.763L333.837 203.357C335.604 202.019 336.803 200.223 337.435 198.011L335.512 197.461ZM332.637 201.757C331.257 202.782 329.509 203.324 327.329 203.324V205.324C329.854 205.324 332.042 204.69 333.829 203.363L332.637 201.757ZM327.329 203.324C325.586 203.324 324.082 202.939 322.787 202.197L321.792 203.931C323.425 204.869 325.281 205.324 327.329 205.324V203.324ZM322.798 202.203C321.494 201.433 320.467 200.367 319.711 198.984L317.956 199.944C318.88 201.633 320.157 202.967 321.781 203.925L322.798 202.203ZM319.719 199.001C318.989 197.605 318.609 195.968 318.609 194.064H316.609C316.609 196.24 317.045 198.203 317.947 199.927L319.719 199.001ZM348.411 194.1L347.675 193.423L347.051 194.101L347.677 194.779L348.411 194.1ZM357.555 204V205H359.84L358.29 203.321L357.555 204ZM352.011 204L351.253 204.652L351.553 205H352.011V204ZM344.667 195.468L345.425 194.816L343.667 192.773V195.468H344.667ZM344.667 204V205H345.667V204H344.667ZM340.563 204H339.563V205H340.563V204ZM340.563 177.36V176.36H339.563V177.36H340.563ZM344.667 177.36H345.667V176.36H344.667V177.36ZM344.667 192.84H343.667V195.611L345.437 193.479L344.667 192.84ZM351.867 184.164V183.164H351.398L351.098 183.525L351.867 184.164ZM357.555 184.164L358.291 184.841L359.835 183.164H357.555V184.164ZM347.677 194.779L356.821 204.679L358.29 203.321L349.146 193.421L347.677 194.779ZM357.555 203H352.011V205H357.555V203ZM352.769 203.348L345.425 194.816L343.909 196.12L351.253 204.652L352.769 203.348ZM343.667 195.468V204H345.667V195.468H343.667ZM344.667 203H340.563V205H344.667V203ZM341.563 204V177.36H339.563V204H341.563ZM340.563 178.36H344.667V176.36H340.563V178.36ZM343.667 177.36V192.84H345.667V177.36H343.667ZM345.437 193.479L352.637 184.803L351.098 183.525L343.898 192.201L345.437 193.479ZM351.867 185.164H357.555V183.164H351.867V185.164ZM356.819 183.487L347.675 193.423L349.147 194.777L358.291 184.841L356.819 183.487Z" fill="#BCBCBC" mask="url(#path-4-outside-1_12_32)"/>
</g>
<defs>
<filter id="filter0_d_12_32" x="0" y="0" width="396" height="396" filterUnits="userSpaceOnUse" color-interpolation-filters="sRGB">
<feFlood flood-opacity="0" result="BackgroundImageFix"/>
<feColorMatrix in="SourceAlpha" type="matrix" values="0 0 0 0 0 0 0 0 0 0 0 0 0 0 0 0 0 0 127 0" result="hardAlpha"/>
<feOffset dy="4"/>
<feGaussianBlur stdDeviation="2"/>
<feComposite in2="hardAlpha" operator="out"/>
<feColorMatrix type="matrix" values="0 0 0 0 0 0 0 0 0 0 0 0 0 0 0 0 0 0 0.25 0"/>
<feBlend mode="normal" in2="BackgroundImageFix" result="effect1_dropShadow_12_32"/>
<feBlend mode="normal" in="SourceGraphic" in2="effect1_dropShadow_12_32" result="shape"/>
</filter>
<filter id="filter1_i_12_32" x="4" y="0" width="314.392" height="392" filterUnits="userSpaceOnUse" color-interpolation-filters="sRGB">
<feFlood flood-opacity="0" result="BackgroundImageFix"/>
<feBlend mode="normal" in="SourceGraphic" in2="BackgroundImageFix" result="shape"/>
<feColorMatrix in="SourceAlpha" type="matrix" values="0 0 0 0 0 0 0 0 0 0 0 0 0 0 0 0 0 0 127 0" result="hardAlpha"/>
<feOffset dy="4"/>
<feGaussianBlur stdDeviation="2"/>
<feComposite in2="hardAlpha" operator="arithmetic" k2="-1" k3="1"/>
<feColorMatrix type="matrix" values="0 0 0 0 0 0 0 0 0 0 0 0 0 0 0 0 0 0 0.25 0"/>
<feBlend mode="normal" in2="shape" result="effect1_innerShadow_12_32"/>
</filter>
<filter id="filter2_i_12_32" x="223.031" y="31.154" width="168.969" height="301.511" filterUnits="userSpaceOnUse" color-interpolation-filters="sRGB">
<feFlood flood-opacity="0" result="BackgroundImageFix"/>
<feBlend mode="normal" in="SourceGraphic" in2="BackgroundImageFix" result="shape"/>
<feColorMatrix in="SourceAlpha" type="matrix" values="0 0 0 0 0 0 0 0 0 0 0 0 0 0 0 0 0 0 127 0" result="hardAlpha"/>
<feOffset dy="4"/>
<feGaussianBlur stdDeviation="2"/>
<feComposite in2="hardAlpha" operator="arithmetic" k2="-1" k3="1"/>
<feColorMatrix type="matrix" values="0 0 0 0 0 0 0 0 0 0 0 0 0 0 0 0 0 0 0.25 0"/>
<feBlend mode="normal" in2="shape" result="effect1_innerShadow_12_32"/>
</filter>
<linearGradient id="paint0_linear_12_32" x1="162.214" y1="0" x2="162.214" y2="388" gradientUnits="userSpaceOnUse">
<stop stop-color="#D1D1D1"/>
<stop offset="0.355" stop-color="#9E9E9E"/>
<stop offset="1" stop-color="#6B6B6B"/>
</linearGradient>
<linearGradient id="paint1_linear_12_32" x1="108" y1="161" x2="108" y2="227" gradientUnits="userSpaceOnUse">
<stop stop-color="white"/>
<stop offset="0.0001" stop-color="#E8E8E8"/>
<stop offset="0.2" stop-color="#D4D4D4"/>
<stop offset="0.545" stop-color="white"/>
<stop offset="0.9999" stop-color="white"/>
<stop offset="1" stop-color="#9D9D9D" stop-opacity="0.52"/>
</linearGradient>
<linearGradient id="paint2_linear_12_32" x1="222" y1="14" x2="222" y2="375" gradientUnits="userSpaceOnUse">
<stop stop-opacity="0.5"/>
<stop offset="0.0001" stop-color="#030303"/>
<stop offset="0.315" stop-color="#343434"/>
<stop offset="0.53" stop-color="#343434"/>
<stop offset="1" stop-color="#666666"/>
</linearGradient>
</defs>
</svg>
