<svg width="354" height="360" viewBox="0 0 354 360" fill="none" xmlns="http://www.w3.org/2000/svg">
<g filter="url(#filter0_d_37_99)">
<mask id="path-1-inside-1_37_99" fill="white">
<path d="M279.376 320.171C256.754 336.102 230.703 346.422 203.355 350.287C176.007 354.153 148.138 351.454 122.026 342.411C95.9133 333.369 72.2998 318.239 53.1155 298.26C33.9313 278.28 19.721 254.018 11.6467 227.457C3.57229 200.896 1.86303 172.791 6.65865 145.438C11.4543 118.085 22.6186 92.2623 39.2388 70.0805C55.859 47.8987 77.4633 29.9878 102.285 17.8122C127.107 5.63663 154.442 -0.457938 182.054 0.0268069L179 176L279.376 320.171Z"/>
</mask>
<path d="M279.376 320.171C256.754 336.102 230.703 346.422 203.355 350.287C176.007 354.153 148.138 351.454 122.026 342.411C95.9133 333.369 72.2998 318.239 53.1155 298.26C33.9313 278.28 19.721 254.018 11.6467 227.457C3.57229 200.896 1.86303 172.791 6.65865 145.438C11.4543 118.085 22.6186 92.2623 39.2388 70.0805C55.859 47.8987 77.4633 29.9878 102.285 17.8122C127.107 5.63663 154.442 -0.457938 182.054 0.0268069L179 176L279.376 320.171Z" fill="url(#paint0_linear_37_99)"/>
<path d="M279.376 320.171C256.754 336.102 230.703 346.422 203.355 350.287C176.007 354.153 148.138 351.454 122.026 342.411C95.9133 333.369 72.2998 318.239 53.1155 298.26C33.9313 278.28 19.721 254.018 11.6467 227.457C3.57229 200.896 1.86303 172.791 6.65865 145.438C11.4543 118.085 22.6186 92.2623 39.2388 70.0805C55.859 47.8987 77.4633 29.9878 102.285 17.8122C127.107 5.63663 154.442 -0.457938 182.054 0.0268069L179 176L279.376 320.171Z" stroke="black" stroke-opacity="0.08" stroke-width="2" mask="url(#path-1-inside-1_37_99)"/>
</g>
<g filter="url(#filter1_d_37_99)">
<mask id="path-2-inside-2_37_99" fill="white">
<path d="M196.705 13.0244C229.017 13.6066 260.345 24.5997 286.306 44.466C312.268 64.3323 331.564 92.0783 341.497 123.823C351.43 155.568 351.502 189.723 341.704 221.512C331.905 253.301 312.726 281.134 286.849 301.117L194 173L196.705 13.0244Z"/>
</mask>
<path d="M196.705 13.0244C229.017 13.6066 260.345 24.5997 286.306 44.466C312.268 64.3323 331.564 92.0783 341.497 123.823C351.43 155.568 351.502 189.723 341.704 221.512C331.905 253.301 312.726 281.134 286.849 301.117L194 173L196.705 13.0244Z" fill="url(#paint1_linear_37_99)"/>
<path d="M196.705 13.0244C229.017 13.6066 260.345 24.5997 286.306 44.466C312.268 64.3323 331.564 92.0783 341.497 123.823C351.43 155.568 351.502 189.723 341.704 221.512C331.905 253.301 312.726 281.134 286.849 301.117L194 173L196.705 13.0244Z" stroke="white" stroke-opacity="0.08" stroke-width="2" mask="url(#path-2-inside-2_37_99)"/>
</g>
<mask id="path-3-outside-3_37_99" maskUnits="userSpaceOnUse" x="224" y="145" width="90" height="30" fill="black">
<rect fill="white" x="224" y="145" width="90" height="30"/>
<path d="M239.295 160.148C240.639 160.388 241.779 161.096 242.715 162.272C243.651 163.448 244.119 164.78 244.119 166.268C244.119 167.54 243.783 168.692 243.111 169.724C242.463 170.732 241.515 171.536 240.267 172.136C239.019 172.712 237.567 173 235.911 173H225.903V147.98H235.443C237.147 147.98 238.611 148.268 239.835 148.844C241.059 149.42 241.983 150.2 242.607 151.184C243.231 152.144 243.543 153.224 243.543 154.424C243.543 155.864 243.159 157.064 242.391 158.024C241.623 158.984 240.591 159.692 239.295 160.148ZM230.007 158.492H235.083C236.427 158.492 237.471 158.192 238.215 157.592C238.983 156.968 239.367 156.08 239.367 154.928C239.367 153.8 238.983 152.924 238.215 152.3C237.471 151.652 236.427 151.328 235.083 151.328H230.007V158.492ZM235.551 169.652C236.943 169.652 238.035 169.316 238.827 168.644C239.619 167.972 240.015 167.036 240.015 165.836C240.015 164.612 239.595 163.64 238.755 162.92C237.915 162.2 236.799 161.84 235.407 161.84H230.007V169.652H235.551ZM247.211 162.992C247.211 161 247.619 159.236 248.435 157.7C249.275 156.164 250.403 154.976 251.819 154.136C253.259 153.272 254.843 152.84 256.571 152.84C258.131 152.84 259.487 153.152 260.639 153.776C261.815 154.376 262.751 155.132 263.447 156.044V153.164H267.587V173H263.447V170.048C262.751 170.984 261.803 171.764 260.603 172.388C259.403 173.012 258.035 173.324 256.499 173.324C254.795 173.324 253.235 172.892 251.819 172.028C250.403 171.14 249.275 169.916 248.435 168.356C247.619 166.772 247.211 164.984 247.211 162.992ZM263.447 163.064C263.447 161.696 263.159 160.508 262.583 159.5C262.031 158.492 261.299 157.724 260.387 157.196C259.475 156.668 258.491 156.404 257.435 156.404C256.379 156.404 255.395 156.668 254.483 157.196C253.571 157.7 252.827 158.456 252.251 159.464C251.699 160.448 251.423 161.624 251.423 162.992C251.423 164.36 251.699 165.56 252.251 166.592C252.827 167.624 253.571 168.416 254.483 168.968C255.419 169.496 256.403 169.76 257.435 169.76C258.491 169.76 259.475 169.496 260.387 168.968C261.299 168.44 262.031 167.672 262.583 166.664C263.159 165.632 263.447 164.432 263.447 163.064ZM271.609 163.064C271.609 161.024 272.017 159.236 272.833 157.7C273.673 156.14 274.825 154.94 276.289 154.1C277.753 153.26 279.433 152.84 281.329 152.84C283.729 152.84 285.709 153.416 287.269 154.568C288.853 155.696 289.921 157.316 290.473 159.428H286.045C285.685 158.444 285.109 157.676 284.317 157.124C283.525 156.572 282.529 156.296 281.329 156.296C279.649 156.296 278.305 156.896 277.297 158.096C276.313 159.272 275.821 160.928 275.821 163.064C275.821 165.2 276.313 166.868 277.297 168.068C278.305 169.268 279.649 169.868 281.329 169.868C283.705 169.868 285.277 168.824 286.045 166.736H290.473C289.897 168.752 288.817 170.36 287.233 171.56C285.649 172.736 283.681 173.324 281.329 173.324C279.433 173.324 277.753 172.904 276.289 172.064C274.825 171.2 273.673 170 272.833 168.464C272.017 166.904 271.609 165.104 271.609 163.064ZM302.411 163.1L311.555 173H306.011L298.667 164.468V173H294.563V146.36H298.667V161.84L305.867 153.164H311.555L302.411 163.1Z"/>
</mask>
<path d="M239.295 160.148C240.639 160.388 241.779 161.096 242.715 162.272C243.651 163.448 244.119 164.78 244.119 166.268C244.119 167.54 243.783 168.692 243.111 169.724C242.463 170.732 241.515 171.536 240.267 172.136C239.019 172.712 237.567 173 235.911 173H225.903V147.98H235.443C237.147 147.98 238.611 148.268 239.835 148.844C241.059 149.42 241.983 150.2 242.607 151.184C243.231 152.144 243.543 153.224 243.543 154.424C243.543 155.864 243.159 157.064 242.391 158.024C241.623 158.984 240.591 159.692 239.295 160.148ZM230.007 158.492H235.083C236.427 158.492 237.471 158.192 238.215 157.592C238.983 156.968 239.367 156.08 239.367 154.928C239.367 153.8 238.983 152.924 238.215 152.3C237.471 151.652 236.427 151.328 235.083 151.328H230.007V158.492ZM235.551 169.652C236.943 169.652 238.035 169.316 238.827 168.644C239.619 167.972 240.015 167.036 240.015 165.836C240.015 164.612 239.595 163.64 238.755 162.92C237.915 162.2 236.799 161.84 235.407 161.84H230.007V169.652H235.551ZM247.211 162.992C247.211 161 247.619 159.236 248.435 157.7C249.275 156.164 250.403 154.976 251.819 154.136C253.259 153.272 254.843 152.84 256.571 152.84C258.131 152.84 259.487 153.152 260.639 153.776C261.815 154.376 262.751 155.132 263.447 156.044V153.164H267.587V173H263.447V170.048C262.751 170.984 261.803 171.764 260.603 172.388C259.403 173.012 258.035 173.324 256.499 173.324C254.795 173.324 253.235 172.892 251.819 172.028C250.403 171.14 249.275 169.916 248.435 168.356C247.619 166.772 247.211 164.984 247.211 162.992ZM263.447 163.064C263.447 161.696 263.159 160.508 262.583 159.5C262.031 158.492 261.299 157.724 260.387 157.196C259.475 156.668 258.491 156.404 257.435 156.404C256.379 156.404 255.395 156.668 254.483 157.196C253.571 157.7 252.827 158.456 252.251 159.464C251.699 160.448 251.423 161.624 251.423 162.992C251.423 164.36 251.699 165.56 252.251 166.592C252.827 167.624 253.571 168.416 254.483 168.968C255.419 169.496 256.403 169.76 257.435 169.76C258.491 169.76 259.475 169.496 260.387 168.968C261.299 168.44 262.031 167.672 262.583 166.664C263.159 165.632 263.447 164.432 263.447 163.064ZM271.609 163.064C271.609 161.024 272.017 159.236 272.833 157.7C273.673 156.14 274.825 154.94 276.289 154.1C277.753 153.26 279.433 152.84 281.329 152.84C283.729 152.84 285.709 153.416 287.269 154.568C288.853 155.696 289.921 157.316 290.473 159.428H286.045C285.685 158.444 285.109 157.676 284.317 157.124C283.525 156.572 282.529 156.296 281.329 156.296C279.649 156.296 278.305 156.896 277.297 158.096C276.313 159.272 275.821 160.928 275.821 163.064C275.821 165.2 276.313 166.868 277.297 168.068C278.305 169.268 279.649 169.868 281.329 169.868C283.705 169.868 285.277 168.824 286.045 166.736H290.473C289.897 168.752 288.817 170.36 287.233 171.56C285.649 172.736 283.681 173.324 281.329 173.324C279.433 173.324 277.753 172.904 276.289 172.064C274.825 171.2 273.673 170 272.833 168.464C272.017 166.904 271.609 165.104 271.609 163.064ZM302.411 163.1L311.555 173H306.011L298.667 164.468V173H294.563V146.36H298.667V161.84L305.867 153.164H311.555L302.411 163.1Z" fill="white"/>
<path d="M239.295 160.148L238.963 159.205L235.381 160.465L239.119 161.132L239.295 160.148ZM242.715 162.272L243.498 161.649L243.498 161.649L242.715 162.272ZM243.111 169.724L242.273 169.178L242.27 169.183L243.111 169.724ZM240.267 172.136L240.686 173.044L240.693 173.041L240.7 173.037L240.267 172.136ZM225.903 173H224.903V174H225.903V173ZM225.903 147.98V146.98H224.903V147.98H225.903ZM239.835 148.844L239.409 149.749L239.409 149.749L239.835 148.844ZM242.607 151.184L241.763 151.72L241.769 151.729L242.607 151.184ZM242.391 158.024L243.172 158.649L243.172 158.649L242.391 158.024ZM230.007 158.492H229.007V159.492H230.007V158.492ZM238.215 157.592L238.843 158.37L238.846 158.368L238.215 157.592ZM238.215 152.3L237.558 153.054L237.571 153.065L237.585 153.076L238.215 152.3ZM230.007 151.328V150.328H229.007V151.328H230.007ZM238.827 168.644L238.18 167.881L238.18 167.881L238.827 168.644ZM230.007 161.84V160.84H229.007V161.84H230.007ZM230.007 169.652H229.007V170.652H230.007V169.652ZM239.119 161.132C240.199 161.325 241.132 161.888 241.933 162.895L243.498 161.649C242.427 160.304 241.079 159.451 239.471 159.164L239.119 161.132ZM241.933 162.895C242.729 163.896 243.119 165.009 243.119 166.268H245.119C245.119 164.551 244.573 163 243.498 161.649L241.933 162.895ZM243.119 166.268C243.119 167.353 242.836 168.314 242.273 169.178L243.949 170.27C244.73 169.07 245.119 167.727 245.119 166.268H243.119ZM242.27 169.183C241.737 170.013 240.942 170.702 239.834 171.235L240.7 173.037C242.089 172.37 243.19 171.451 243.952 170.265L242.27 169.183ZM239.848 171.228C238.756 171.732 237.452 172 235.911 172V174C237.683 174 239.283 173.692 240.686 173.044L239.848 171.228ZM235.911 172H225.903V174H235.911V172ZM226.903 173V147.98H224.903V173H226.903ZM225.903 148.98H235.443V146.98H225.903V148.98ZM235.443 148.98C237.037 148.98 238.348 149.25 239.409 149.749L240.261 147.939C238.874 147.286 237.257 146.98 235.443 146.98V148.98ZM239.409 149.749C240.49 150.257 241.256 150.92 241.763 151.72L243.452 150.648C242.71 149.48 241.629 148.583 240.261 147.939L239.409 149.749ZM241.769 151.729C242.282 152.519 242.543 153.408 242.543 154.424H244.543C244.543 153.04 244.18 151.769 243.446 150.639L241.769 151.729ZM242.543 154.424C242.543 155.678 242.213 156.646 241.61 157.399L243.172 158.649C244.105 157.482 244.543 156.05 244.543 154.424H242.543ZM241.61 157.399C240.973 158.196 240.104 158.803 238.963 159.205L239.627 161.091C241.078 160.581 242.274 159.772 243.172 158.649L241.61 157.399ZM230.007 159.492H235.083V157.492H230.007V159.492ZM235.083 159.492C236.564 159.492 237.861 159.162 238.843 158.37L237.587 156.814C237.081 157.222 236.29 157.492 235.083 157.492V159.492ZM238.846 158.368C239.887 157.522 240.367 156.326 240.367 154.928H238.367C238.367 155.834 238.079 156.414 237.585 156.816L238.846 158.368ZM240.367 154.928C240.367 153.546 239.882 152.366 238.846 151.524L237.585 153.076C238.084 153.482 238.367 154.054 238.367 154.928H240.367ZM238.872 151.546C237.889 150.69 236.581 150.328 235.083 150.328V152.328C236.274 152.328 237.053 152.614 237.558 153.054L238.872 151.546ZM235.083 150.328H230.007V152.328H235.083V150.328ZM229.007 151.328V158.492H231.007V151.328H229.007ZM235.551 170.652C237.099 170.652 238.448 170.277 239.474 169.407L238.18 167.881C237.622 168.355 236.787 168.652 235.551 168.652V170.652ZM239.474 169.407C240.526 168.514 241.015 167.279 241.015 165.836H239.015C239.015 166.793 238.712 167.43 238.18 167.881L239.474 169.407ZM241.015 165.836C241.015 164.355 240.493 163.092 239.406 162.161L238.104 163.679C238.697 164.188 239.015 164.869 239.015 165.836H241.015ZM239.406 162.161C238.342 161.249 236.974 160.84 235.407 160.84V162.84C236.624 162.84 237.489 163.151 238.104 163.679L239.406 162.161ZM235.407 160.84H230.007V162.84H235.407V160.84ZM229.007 161.84V169.652H231.007V161.84H229.007ZM230.007 170.652H235.551V168.652H230.007V170.652ZM248.435 157.7L247.557 157.22L247.552 157.231L248.435 157.7ZM251.819 154.136L252.329 154.996L252.333 154.993L251.819 154.136ZM260.639 153.776L260.163 154.655L260.173 154.661L260.184 154.667L260.639 153.776ZM263.447 156.044L262.652 156.651L264.447 159.003V156.044H263.447ZM263.447 153.164V152.164H262.447V153.164H263.447ZM267.587 153.164H268.587V152.164H267.587V153.164ZM267.587 173V174H268.587V173H267.587ZM263.447 173H262.447V174H263.447V173ZM263.447 170.048H264.447V167.027L262.644 169.451L263.447 170.048ZM260.603 172.388L260.142 171.501L260.142 171.501L260.603 172.388ZM251.819 172.028L251.288 172.875L251.298 172.882L251.819 172.028ZM248.435 168.356L247.546 168.814L247.55 168.822L247.554 168.83L248.435 168.356ZM262.583 159.5L261.706 159.98L261.71 159.988L261.715 159.996L262.583 159.5ZM260.387 157.196L259.886 158.061L259.886 158.061L260.387 157.196ZM254.483 157.196L254.967 158.071L254.975 158.066L254.984 158.061L254.483 157.196ZM252.251 159.464L251.383 158.968L251.379 158.975L252.251 159.464ZM252.251 166.592L251.369 167.064L251.373 167.072L251.378 167.079L252.251 166.592ZM254.483 168.968L253.965 169.823L253.978 169.831L253.992 169.839L254.483 168.968ZM260.387 168.968L260.888 169.833L260.888 169.833L260.387 168.968ZM262.583 166.664L261.71 166.177L261.706 166.184L262.583 166.664ZM248.211 162.992C248.211 161.14 248.589 159.541 249.318 158.169L247.552 157.231C246.649 158.931 246.211 160.86 246.211 162.992H248.211ZM249.312 158.18C250.072 156.791 251.077 155.739 252.329 154.996L251.309 153.276C249.729 154.213 248.478 155.537 247.558 157.22L249.312 158.18ZM252.333 154.993C253.613 154.226 255.019 153.84 256.571 153.84V151.84C254.667 151.84 252.904 152.318 251.304 153.279L252.333 154.993ZM256.571 153.84C257.996 153.84 259.182 154.124 260.163 154.655L261.115 152.897C259.791 152.18 258.266 151.84 256.571 151.84V153.84ZM260.184 154.667C261.247 155.209 262.06 155.874 262.652 156.651L264.242 155.437C263.442 154.39 262.383 153.543 261.093 152.885L260.184 154.667ZM264.447 156.044V153.164H262.447V156.044H264.447ZM263.447 154.164H267.587V152.164H263.447V154.164ZM266.587 153.164V173H268.587V153.164H266.587ZM267.587 172H263.447V174H267.587V172ZM264.447 173V170.048H262.447V173H264.447ZM262.644 169.451C262.052 170.248 261.229 170.935 260.142 171.501L261.064 173.275C262.377 172.593 263.45 171.72 264.249 170.645L262.644 169.451ZM260.142 171.501C259.102 172.041 257.896 172.324 256.499 172.324V174.324C258.174 174.324 259.703 173.983 261.064 173.275L260.142 171.501ZM256.499 172.324C254.973 172.324 253.594 171.94 252.34 171.174L251.298 172.882C252.875 173.844 254.616 174.324 256.499 174.324V172.324ZM252.35 171.181C251.09 170.39 250.078 169.299 249.315 167.882L247.554 168.83C248.471 170.533 249.716 171.89 251.288 172.875L252.35 171.181ZM249.324 167.898C248.589 166.472 248.211 164.844 248.211 162.992H246.211C246.211 165.124 246.649 167.072 247.546 168.814L249.324 167.898ZM264.447 163.064C264.447 161.553 264.128 160.188 263.451 159.004L261.715 159.996C262.19 160.828 262.447 161.839 262.447 163.064H264.447ZM263.46 159.02C262.828 157.866 261.972 156.958 260.888 156.331L259.886 158.061C260.625 158.49 261.233 159.118 261.706 159.98L263.46 159.02ZM260.888 156.331C259.823 155.714 258.666 155.404 257.435 155.404V157.404C258.315 157.404 259.126 157.622 259.886 158.061L260.888 156.331ZM257.435 155.404C256.203 155.404 255.046 155.714 253.982 156.331L254.984 158.061C255.743 157.622 256.554 157.404 257.435 157.404V155.404ZM253.999 156.321C252.909 156.923 252.039 157.819 251.383 158.968L253.119 159.96C253.615 159.093 254.233 158.477 254.967 158.071L253.999 156.321ZM251.379 158.975C250.727 160.137 250.423 161.489 250.423 162.992H252.423C252.423 161.759 252.671 160.759 253.123 159.953L251.379 158.975ZM250.423 162.992C250.423 164.497 250.727 165.864 251.369 167.064L253.133 166.12C252.67 165.256 252.423 164.223 252.423 162.992H250.423ZM251.378 167.079C252.029 168.246 252.889 169.172 253.965 169.823L255.001 168.112C254.253 167.66 253.625 167.002 253.124 166.105L251.378 167.079ZM253.992 169.839C255.071 170.448 256.224 170.76 257.435 170.76V168.76C256.582 168.76 255.767 168.544 254.974 168.097L253.992 169.839ZM257.435 170.76C258.666 170.76 259.823 170.45 260.888 169.833L259.886 168.103C259.126 168.542 258.315 168.76 257.435 168.76V170.76ZM260.888 169.833C261.972 169.206 262.828 168.298 263.46 167.144L261.706 166.184C261.233 167.046 260.625 167.674 259.886 168.103L260.888 169.833ZM263.456 167.151C264.128 165.948 264.447 164.575 264.447 163.064H262.447C262.447 164.289 262.19 165.316 261.71 166.177L263.456 167.151ZM272.833 157.7L271.953 157.226L271.95 157.231L272.833 157.7ZM276.289 154.1L275.792 153.233L275.792 153.233L276.289 154.1ZM287.269 154.568L286.675 155.372L286.682 155.378L286.689 155.383L287.269 154.568ZM290.473 159.428V160.428H291.768L291.441 159.175L290.473 159.428ZM286.045 159.428L285.106 159.772L285.346 160.428H286.045V159.428ZM277.297 158.096L276.532 157.453L276.53 157.454L277.297 158.096ZM277.297 168.068L276.524 168.702L276.532 168.711L277.297 168.068ZM286.045 166.736V165.736H285.348L285.107 166.391L286.045 166.736ZM290.473 166.736L291.435 167.011L291.799 165.736H290.473V166.736ZM287.233 171.56L287.829 172.363L287.837 172.357L287.233 171.56ZM276.289 172.064L275.781 172.925L275.792 172.931L276.289 172.064ZM272.833 168.464L271.947 168.927L271.952 168.936L271.956 168.944L272.833 168.464ZM272.609 163.064C272.609 161.159 272.989 159.538 273.716 158.169L271.95 157.231C271.045 158.934 270.609 160.889 270.609 163.064H272.609ZM273.714 158.174C274.47 156.77 275.493 155.71 276.787 154.967L275.792 153.233C274.158 154.17 272.877 155.51 271.953 157.226L273.714 158.174ZM276.787 154.967C278.082 154.225 279.586 153.84 281.329 153.84V151.84C279.281 151.84 277.425 152.295 275.792 153.233L276.787 154.967ZM281.329 153.84C283.567 153.84 285.325 154.375 286.675 155.372L287.863 153.764C286.094 152.457 283.892 151.84 281.329 151.84V153.84ZM286.689 155.383C288.059 156.358 289.005 157.766 289.506 159.681L291.441 159.175C290.837 156.866 289.648 155.034 287.849 153.753L286.689 155.383ZM290.473 158.428H286.045V160.428H290.473V158.428ZM286.984 159.084C286.56 157.925 285.864 156.983 284.889 156.304L283.746 157.944C284.355 158.369 284.81 158.963 285.106 159.772L286.984 159.084ZM284.889 156.304C283.892 155.609 282.684 155.296 281.329 155.296V157.296C282.375 157.296 283.158 157.535 283.746 157.944L284.889 156.304ZM281.329 155.296C279.378 155.296 277.745 156.009 276.532 157.453L278.063 158.739C278.866 157.783 279.921 157.296 281.329 157.296V155.296ZM276.53 157.454C275.346 158.87 274.821 160.785 274.821 163.064H276.821C276.821 161.071 277.281 159.674 278.064 158.738L276.53 157.454ZM274.821 163.064C274.821 165.345 275.347 167.266 276.524 168.702L278.071 167.434C277.28 166.47 276.821 165.055 276.821 163.064H274.821ZM276.532 168.711C277.745 170.155 279.378 170.868 281.329 170.868V168.868C279.921 168.868 278.866 168.381 278.063 167.425L276.532 168.711ZM281.329 170.868C282.663 170.868 283.856 170.574 284.844 169.918C285.837 169.259 286.54 168.288 286.984 167.081L285.107 166.391C284.783 167.272 284.316 167.867 283.737 168.252C283.153 168.64 282.371 168.868 281.329 168.868V170.868ZM286.045 167.736H290.473V165.736H286.045V167.736ZM289.512 166.461C288.992 168.281 288.031 169.701 286.629 170.763L287.837 172.357C289.604 171.019 290.803 169.223 291.435 167.011L289.512 166.461ZM286.637 170.757C285.257 171.782 283.509 172.324 281.329 172.324V174.324C283.854 174.324 286.042 173.69 287.829 172.363L286.637 170.757ZM281.329 172.324C279.586 172.324 278.082 171.939 276.787 171.197L275.792 172.931C277.425 173.869 279.281 174.324 281.329 174.324V172.324ZM276.798 171.203C275.494 170.433 274.467 169.367 273.711 167.984L271.956 168.944C272.88 170.633 274.157 171.967 275.781 172.925L276.798 171.203ZM273.719 168.001C272.989 166.605 272.609 164.968 272.609 163.064H270.609C270.609 165.24 271.045 167.203 271.947 168.927L273.719 168.001ZM302.411 163.1L301.675 162.423L301.051 163.101L301.677 163.779L302.411 163.1ZM311.555 173V174H313.84L312.29 172.321L311.555 173ZM306.011 173L305.253 173.652L305.553 174H306.011V173ZM298.667 164.468L299.425 163.816L297.667 161.773V164.468H298.667ZM298.667 173V174H299.667V173H298.667ZM294.563 173H293.563V174H294.563V173ZM294.563 146.36V145.36H293.563V146.36H294.563ZM298.667 146.36H299.667V145.36H298.667V146.36ZM298.667 161.84H297.667V164.611L299.437 162.479L298.667 161.84ZM305.867 153.164V152.164H305.398L305.098 152.525L305.867 153.164ZM311.555 153.164L312.291 153.841L313.835 152.164H311.555V153.164ZM301.677 163.779L310.821 173.679L312.29 172.321L303.146 162.421L301.677 163.779ZM311.555 172H306.011V174H311.555V172ZM306.769 172.348L299.425 163.816L297.909 165.12L305.253 173.652L306.769 172.348ZM297.667 164.468V173H299.667V164.468H297.667ZM298.667 172H294.563V174H298.667V172ZM295.563 173V146.36H293.563V173H295.563ZM294.563 147.36H298.667V145.36H294.563V147.36ZM297.667 146.36V161.84H299.667V146.36H297.667ZM299.437 162.479L306.637 153.803L305.098 152.525L297.898 161.201L299.437 162.479ZM305.867 154.164H311.555V152.164H305.867V154.164ZM310.819 152.487L301.675 162.423L303.147 163.777L312.291 153.841L310.819 152.487Z" fill="black" fill-opacity="0.08" mask="url(#path-3-outside-3_37_99)"/>
<mask id="path-5-outside-4_37_99" maskUnits="userSpaceOnUse" x="45" y="159" width="101" height="31" fill="black">
<rect fill="white" x="45" y="159" width="101" height="31"/>
<path d="M63.2077 160.2V163.92H51.4077V172.12H60.6077V175.84H51.4077V188H46.8477V160.2H63.2077ZM71.9936 169.16C72.6603 168.04 73.5403 167.173 74.6336 166.56C75.7536 165.92 77.0736 165.6 78.5936 165.6V170.32H77.4336C75.6469 170.32 74.2869 170.773 73.3536 171.68C72.4469 172.587 71.9936 174.16 71.9936 176.4V188H67.4336V165.96H71.9936V169.16ZM92.3452 188.36C90.2652 188.36 88.3852 187.893 86.7052 186.96C85.0252 186 83.7052 184.667 82.7452 182.96C81.7852 181.227 81.3052 179.227 81.3052 176.96C81.3052 174.72 81.7985 172.733 82.7852 171C83.7718 169.267 85.1185 167.933 86.8252 167C88.5318 166.067 90.4385 165.6 92.5452 165.6C94.6518 165.6 96.5585 166.067 98.2652 167C99.9718 167.933 101.318 169.267 102.305 171C103.292 172.733 103.785 174.72 103.785 176.96C103.785 179.2 103.278 181.187 102.265 182.92C101.252 184.653 99.8652 186 98.1052 186.96C96.3718 187.893 94.4518 188.36 92.3452 188.36ZM92.3452 184.4C93.5185 184.4 94.6118 184.12 95.6252 183.56C96.6652 183 97.5052 182.16 98.1452 181.04C98.7852 179.92 99.1052 178.56 99.1052 176.96C99.1052 175.36 98.7985 174.013 98.1852 172.92C97.5718 171.8 96.7585 170.96 95.7452 170.4C94.7318 169.84 93.6385 169.56 92.4652 169.56C91.2918 169.56 90.1985 169.84 89.1852 170.4C88.1985 170.96 87.4118 171.8 86.8252 172.92C86.2385 174.013 85.9452 175.36 85.9452 176.96C85.9452 179.333 86.5452 181.173 87.7452 182.48C88.9718 183.76 90.5052 184.4 92.3452 184.4ZM119.413 165.6C121.146 165.6 122.693 165.96 124.053 166.68C125.44 167.4 126.52 168.467 127.293 169.88C128.066 171.293 128.453 173 128.453 175V188H123.933V175.68C123.933 173.707 123.44 172.2 122.453 171.16C121.466 170.093 120.12 169.56 118.413 169.56C116.706 169.56 115.346 170.093 114.333 171.16C113.346 172.2 112.853 173.707 112.853 175.68V188H108.293V165.96H112.853V168.48C113.6 167.573 114.546 166.867 115.693 166.36C116.866 165.853 118.106 165.6 119.413 165.6ZM139.59 169.68V181.88C139.59 182.707 139.776 183.307 140.15 183.68C140.55 184.027 141.216 184.2 142.15 184.2H144.95V188H141.35C139.296 188 137.723 187.52 136.63 186.56C135.536 185.6 134.99 184.04 134.99 181.88V169.68H132.39V165.96H134.99V160.48H139.59V165.96H144.95V169.68H139.59Z"/>
</mask>
<path d="M63.2077 160.2V163.92H51.4077V172.12H60.6077V175.84H51.4077V188H46.8477V160.2H63.2077ZM71.9936 169.16C72.6603 168.04 73.5403 167.173 74.6336 166.56C75.7536 165.92 77.0736 165.6 78.5936 165.6V170.32H77.4336C75.6469 170.32 74.2869 170.773 73.3536 171.68C72.4469 172.587 71.9936 174.16 71.9936 176.4V188H67.4336V165.96H71.9936V169.16ZM92.3452 188.36C90.2652 188.36 88.3852 187.893 86.7052 186.96C85.0252 186 83.7052 184.667 82.7452 182.96C81.7852 181.227 81.3052 179.227 81.3052 176.96C81.3052 174.72 81.7985 172.733 82.7852 171C83.7718 169.267 85.1185 167.933 86.8252 167C88.5318 166.067 90.4385 165.6 92.5452 165.6C94.6518 165.6 96.5585 166.067 98.2652 167C99.9718 167.933 101.318 169.267 102.305 171C103.292 172.733 103.785 174.72 103.785 176.96C103.785 179.2 103.278 181.187 102.265 182.92C101.252 184.653 99.8652 186 98.1052 186.96C96.3718 187.893 94.4518 188.36 92.3452 188.36ZM92.3452 184.4C93.5185 184.4 94.6118 184.12 95.6252 183.56C96.6652 183 97.5052 182.16 98.1452 181.04C98.7852 179.92 99.1052 178.56 99.1052 176.96C99.1052 175.36 98.7985 174.013 98.1852 172.92C97.5718 171.8 96.7585 170.96 95.7452 170.4C94.7318 169.84 93.6385 169.56 92.4652 169.56C91.2918 169.56 90.1985 169.84 89.1852 170.4C88.1985 170.96 87.4118 171.8 86.8252 172.92C86.2385 174.013 85.9452 175.36 85.9452 176.96C85.9452 179.333 86.5452 181.173 87.7452 182.48C88.9718 183.76 90.5052 184.4 92.3452 184.4ZM119.413 165.6C121.146 165.6 122.693 165.96 124.053 166.68C125.44 167.4 126.52 168.467 127.293 169.88C128.066 171.293 128.453 173 128.453 175V188H123.933V175.68C123.933 173.707 123.44 172.2 122.453 171.16C121.466 170.093 120.12 169.56 118.413 169.56C116.706 169.56 115.346 170.093 114.333 171.16C113.346 172.2 112.853 173.707 112.853 175.68V188H108.293V165.96H112.853V168.48C113.6 167.573 114.546 166.867 115.693 166.36C116.866 165.853 118.106 165.6 119.413 165.6ZM139.59 169.68V181.88C139.59 182.707 139.776 183.307 140.15 183.68C140.55 184.027 141.216 184.2 142.15 184.2H144.95V188H141.35C139.296 188 137.723 187.52 136.63 186.56C135.536 185.6 134.99 184.04 134.99 181.88V169.68H132.39V165.96H134.99V160.48H139.59V165.96H144.95V169.68H139.59Z" fill="white"/>
<path d="M63.2077 160.2H64.2077V159.2H63.2077V160.2ZM63.2077 163.92V164.92H64.2077V163.92H63.2077ZM51.4077 163.92V162.92H50.4077V163.92H51.4077ZM51.4077 172.12H50.4077V173.12H51.4077V172.12ZM60.6077 172.12H61.6077V171.12H60.6077V172.12ZM60.6077 175.84V176.84H61.6077V175.84H60.6077ZM51.4077 175.84V174.84H50.4077V175.84H51.4077ZM51.4077 188V189H52.4077V188H51.4077ZM46.8477 188H45.8477V189H46.8477V188ZM46.8477 160.2V159.2H45.8477V160.2H46.8477ZM62.2077 160.2V163.92H64.2077V160.2H62.2077ZM63.2077 162.92H51.4077V164.92H63.2077V162.92ZM50.4077 163.92V172.12H52.4077V163.92H50.4077ZM51.4077 173.12H60.6077V171.12H51.4077V173.12ZM59.6077 172.12V175.84H61.6077V172.12H59.6077ZM60.6077 174.84H51.4077V176.84H60.6077V174.84ZM50.4077 175.84V188H52.4077V175.84H50.4077ZM51.4077 187H46.8477V189H51.4077V187ZM47.8477 188V160.2H45.8477V188H47.8477ZM46.8477 161.2H63.2077V159.2H46.8477V161.2ZM71.9936 169.16H70.9936V172.795L72.8529 169.671L71.9936 169.16ZM74.6336 166.56L75.1229 167.432L75.1297 167.428L74.6336 166.56ZM78.5936 165.6H79.5936V164.6H78.5936V165.6ZM78.5936 170.32V171.32H79.5936V170.32H78.5936ZM73.3536 171.68L72.6568 170.963L72.6516 170.968L72.6465 170.973L73.3536 171.68ZM71.9936 188V189H72.9936V188H71.9936ZM67.4336 188H66.4336V189H67.4336V188ZM67.4336 165.96V164.96H66.4336V165.96H67.4336ZM71.9936 165.96H72.9936V164.96H71.9936V165.96ZM72.8529 169.671C73.4336 168.696 74.1885 167.956 75.1228 167.432L74.1443 165.688C72.892 166.39 71.8869 167.384 71.1343 168.649L72.8529 169.671ZM75.1297 167.428C76.0737 166.889 77.2164 166.6 78.5936 166.6V164.6C76.9308 164.6 75.4335 164.951 74.1375 165.692L75.1297 167.428ZM77.5936 165.6V170.32H79.5936V165.6H77.5936ZM78.5936 169.32H77.4336V171.32H78.5936V169.32ZM77.4336 169.32C75.4855 169.32 73.8373 169.816 72.6568 170.963L74.0504 172.397C74.7365 171.731 75.8083 171.32 77.4336 171.32V169.32ZM72.6465 170.973C71.4535 172.166 70.9936 174.078 70.9936 176.4H72.9936C72.9936 174.242 73.4403 173.007 74.0607 172.387L72.6465 170.973ZM70.9936 176.4V188H72.9936V176.4H70.9936ZM71.9936 187H67.4336V189H71.9936V187ZM68.4336 188V165.96H66.4336V188H68.4336ZM67.4336 166.96H71.9936V164.96H67.4336V166.96ZM70.9936 165.96V169.16H72.9936V165.96H70.9936ZM86.7052 186.96L86.209 187.828L86.2195 187.834L86.7052 186.96ZM82.7452 182.96L81.8703 183.445L81.8736 183.45L82.7452 182.96ZM86.8252 167L86.3453 166.123L86.3453 166.123L86.8252 167ZM98.2652 167L98.745 166.123L98.745 166.123L98.2652 167ZM102.265 182.92L101.402 182.415L102.265 182.92ZM98.1052 186.96L98.5793 187.84L98.584 187.838L98.1052 186.96ZM95.6252 183.56L95.151 182.679L95.1415 182.685L95.6252 183.56ZM98.1452 181.04L97.2769 180.544L97.2769 180.544L98.1452 181.04ZM98.1852 172.92L97.308 173.4L97.313 173.409L98.1852 172.92ZM89.1852 170.4L88.7014 169.525L88.6916 169.53L89.1852 170.4ZM86.8252 172.92L87.7064 173.393L87.711 173.384L86.8252 172.92ZM87.7452 182.48L87.0086 183.156L87.0158 183.164L87.0232 183.172L87.7452 182.48ZM92.3452 187.36C90.4207 187.36 88.7102 186.93 87.1908 186.086L86.2195 187.834C88.0602 188.857 90.1096 189.36 92.3452 189.36V187.36ZM87.2013 186.092C85.6803 185.223 84.4892 184.021 83.6167 182.47L81.8736 183.45C82.9211 185.313 84.37 186.777 86.209 187.828L87.2013 186.092ZM83.6199 182.476C82.7533 180.911 82.3052 179.082 82.3052 176.96H80.3052C80.3052 179.371 80.8171 181.543 81.8704 183.444L83.6199 182.476ZM82.3052 176.96C82.3052 174.872 82.7635 173.059 83.6542 171.495L81.9161 170.505C80.8334 172.407 80.3052 174.568 80.3052 176.96H82.3052ZM83.6542 171.495C84.5516 169.918 85.7653 168.719 87.305 167.877L86.3453 166.123C84.4717 167.147 82.9921 168.615 81.9161 170.505L83.6542 171.495ZM87.305 167.877C88.8525 167.031 90.5919 166.6 92.5452 166.6V164.6C90.2851 164.6 88.2112 165.102 86.3453 166.123L87.305 167.877ZM92.5452 166.6C94.4984 166.6 96.2379 167.031 97.7853 167.877L98.745 166.123C96.8791 165.102 94.8052 164.6 92.5452 164.6V166.6ZM97.7853 167.877C99.325 168.719 100.539 169.918 101.436 171.495L103.174 170.505C102.098 168.615 100.619 167.147 98.745 166.123L97.7853 167.877ZM101.436 171.495C102.327 173.059 102.785 174.872 102.785 176.96H104.785C104.785 174.568 104.257 172.407 103.174 170.505L101.436 171.495ZM102.785 176.96C102.785 179.044 102.316 180.852 101.402 182.415L103.128 183.425C104.241 181.521 104.785 179.356 104.785 176.96H102.785ZM101.402 182.415C100.48 183.992 99.2263 185.209 97.6263 186.082L98.584 187.838C100.504 186.791 102.023 185.315 103.128 183.425L101.402 182.415ZM97.6311 186.08C96.0536 186.929 94.2983 187.36 92.3452 187.36V189.36C94.6054 189.36 96.6901 188.858 98.5793 187.84L97.6311 186.08ZM92.3452 185.4C93.6853 185.4 94.9454 185.078 96.1088 184.435L95.1415 182.685C94.2783 183.162 93.3517 183.4 92.3452 183.4V185.4ZM96.0993 184.44C97.3191 183.784 98.2894 182.803 99.0134 181.536L97.2769 180.544C96.7209 181.517 96.0113 182.216 95.1511 182.68L96.0993 184.44ZM99.0134 181.536C99.7582 180.233 100.105 178.693 100.105 176.96H98.1052C98.1052 178.427 97.8121 179.607 97.2769 180.544L99.0134 181.536ZM100.105 176.96C100.105 175.235 99.7745 173.709 99.0573 172.431L97.313 173.409C97.8224 174.317 98.1052 175.485 98.1052 176.96H100.105ZM99.0623 172.44C98.3676 171.171 97.4249 170.186 96.2288 169.525L95.2615 171.275C96.092 171.734 96.7761 172.429 97.3081 173.4L99.0623 172.44ZM96.2288 169.525C95.0654 168.882 93.8053 168.56 92.4652 168.56V170.56C93.4717 170.56 94.3983 170.798 95.2615 171.275L96.2288 169.525ZM92.4652 168.56C91.125 168.56 89.865 168.882 88.7015 169.525L89.6688 171.275C90.532 170.798 91.4586 170.56 92.4652 170.56V168.56ZM88.6916 169.53C87.5192 170.196 86.6045 171.186 85.9393 172.456L87.711 173.384C88.2191 172.414 88.8778 171.724 89.6788 171.27L88.6916 169.53ZM85.944 172.447C85.26 173.722 84.9452 175.241 84.9452 176.96H86.9452C86.9452 175.479 87.217 174.305 87.7063 173.393L85.944 172.447ZM84.9452 176.96C84.9452 179.498 85.5887 181.61 87.0086 183.156L88.4817 181.804C87.5016 180.736 86.9452 179.169 86.9452 176.96H84.9452ZM87.0232 183.172C88.4463 184.657 90.2442 185.4 92.3452 185.4V183.4C90.7662 183.4 89.4973 182.863 88.4671 181.788L87.0232 183.172ZM124.053 166.68L123.585 167.564L123.592 167.567L124.053 166.68ZM127.293 169.88L126.416 170.36L126.416 170.36L127.293 169.88ZM128.453 188V189H129.453V188H128.453ZM123.933 188H122.933V189H123.933V188ZM122.453 171.16L121.719 171.839L121.728 171.848L122.453 171.16ZM114.333 171.16L113.608 170.471L113.608 170.472L114.333 171.16ZM112.853 188V189H113.853V188H112.853ZM108.293 188H107.293V189H108.293V188ZM108.293 165.96V164.96H107.293V165.96H108.293ZM112.853 165.96H113.853V164.96H112.853V165.96ZM112.853 168.48H111.853V171.267L113.625 169.116L112.853 168.48ZM115.693 166.36L115.297 165.442L115.289 165.445L115.693 166.36ZM119.413 166.6C121.004 166.6 122.387 166.929 123.585 167.564L124.521 165.796C122.999 164.991 121.289 164.6 119.413 164.6V166.6ZM123.592 167.567C124.797 168.193 125.735 169.115 126.416 170.36L128.17 169.4C127.305 167.818 126.082 166.607 124.514 165.793L123.592 167.567ZM126.416 170.36C127.091 171.595 127.453 173.128 127.453 175H129.453C129.453 172.872 129.041 170.992 128.17 169.4L126.416 170.36ZM127.453 175V188H129.453V175H127.453ZM128.453 187H123.933V189H128.453V187ZM124.933 188V175.68H122.933V188H124.933ZM124.933 175.68C124.933 173.548 124.399 171.758 123.178 170.472L121.728 171.848C122.481 172.642 122.933 173.865 122.933 175.68H124.933ZM123.187 170.481C121.978 169.174 120.345 168.56 118.413 168.56V170.56C119.894 170.56 120.955 171.013 121.719 171.839L123.187 170.481ZM118.413 168.56C116.48 168.56 114.841 169.174 113.608 170.471L115.058 171.849C115.852 171.013 116.933 170.56 118.413 170.56V168.56ZM113.608 170.472C112.387 171.758 111.853 173.548 111.853 175.68H113.853C113.853 173.865 114.305 172.642 115.058 171.848L113.608 170.472ZM111.853 175.68V188H113.853V175.68H111.853ZM112.853 187H108.293V189H112.853V187ZM109.293 188V165.96H107.293V188H109.293ZM108.293 166.96H112.853V164.96H108.293V166.96ZM111.853 165.96V168.48H113.853V165.96H111.853ZM113.625 169.116C114.266 168.337 115.083 167.723 116.097 167.275L115.289 165.445C114.009 166.011 112.933 166.809 112.081 167.844L113.625 169.116ZM116.089 167.278C117.135 166.827 118.24 166.6 119.413 166.6V164.6C117.973 164.6 116.598 164.88 115.297 165.442L116.089 167.278ZM139.59 169.68V168.68H138.59V169.68H139.59ZM140.15 183.68L139.442 184.387L139.468 184.412L139.495 184.436L140.15 183.68ZM144.95 184.2H145.95V183.2H144.95V184.2ZM144.95 188V189H145.95V188H144.95ZM136.63 186.56L135.97 187.311L135.97 187.311L136.63 186.56ZM134.99 169.68H135.99V168.68H134.99V169.68ZM132.39 169.68H131.39V170.68H132.39V169.68ZM132.39 165.96V164.96H131.39V165.96H132.39ZM134.99 165.96V166.96H135.99V165.96H134.99ZM134.99 160.48V159.48H133.99V160.48H134.99ZM139.59 160.48H140.59V159.48H139.59V160.48ZM139.59 165.96H138.59V166.96H139.59V165.96ZM144.95 165.96H145.95V164.96H144.95V165.96ZM144.95 169.68V170.68H145.95V169.68H144.95ZM138.59 169.68V181.88H140.59V169.68H138.59ZM138.59 181.88C138.59 182.826 138.799 183.744 139.442 184.387L140.857 182.973C140.753 182.87 140.59 182.587 140.59 181.88H138.59ZM139.495 184.436C140.171 185.022 141.142 185.2 142.15 185.2V183.2C141.291 183.2 140.928 183.031 140.804 182.924L139.495 184.436ZM142.15 185.2H144.95V183.2H142.15V185.2ZM143.95 184.2V188H145.95V184.2H143.95ZM144.95 187H141.35V189H144.95V187ZM141.35 187C139.44 187 138.137 186.553 137.289 185.809L135.97 187.311C137.308 188.487 139.153 189 141.35 189V187ZM137.289 185.809C136.5 185.115 135.99 183.893 135.99 181.88H133.99C133.99 184.187 134.573 186.085 135.97 187.311L137.289 185.809ZM135.99 181.88V169.68H133.99V181.88H135.99ZM134.99 168.68H132.39V170.68H134.99V168.68ZM133.39 169.68V165.96H131.39V169.68H133.39ZM132.39 166.96H134.99V164.96H132.39V166.96ZM135.99 165.96V160.48H133.99V165.96H135.99ZM134.99 161.48H139.59V159.48H134.99V161.48ZM138.59 160.48V165.96H140.59V160.48H138.59ZM139.59 166.96H144.95V164.96H139.59V166.96ZM143.95 165.96V169.68H145.95V165.96H143.95ZM144.95 168.68H139.59V170.68H144.95V168.68Z" fill="black" fill-opacity="0.08" mask="url(#path-5-outside-4_37_99)"/>
<defs>
<filter id="filter0_d_37_99" x="-1.52588e-05" y="0" width="283.376" height="360" filterUnits="userSpaceOnUse" color-interpolation-filters="sRGB">
<feFlood flood-opacity="0" result="BackgroundImageFix"/>
<feColorMatrix in="SourceAlpha" type="matrix" values="0 0 0 0 0 0 0 0 0 0 0 0 0 0 0 0 0 0 127 0" result="hardAlpha"/>
<feOffset dy="4"/>
<feGaussianBlur stdDeviation="2"/>
<feComposite in2="hardAlpha" operator="out"/>
<feColorMatrix type="matrix" values="0 0 0 0 0 0 0 0 0 0 0 0 0 0 0 0 0 0 0.25 0"/>
<feBlend mode="normal" in2="BackgroundImageFix" result="effect1_dropShadow_37_99"/>
<feBlend mode="normal" in="SourceGraphic" in2="effect1_dropShadow_37_99" result="shape"/>
</filter>
<filter id="filter1_d_37_99" x="190" y="13.0244" width="163" height="296.093" filterUnits="userSpaceOnUse" color-interpolation-filters="sRGB">
<feFlood flood-opacity="0" result="BackgroundImageFix"/>
<feColorMatrix in="SourceAlpha" type="matrix" values="0 0 0 0 0 0 0 0 0 0 0 0 0 0 0 0 0 0 127 0" result="hardAlpha"/>
<feOffset dy="4"/>
<feGaussianBlur stdDeviation="2"/>
<feComposite in2="hardAlpha" operator="out"/>
<feColorMatrix type="matrix" values="0 0 0 0 0 0 0 0 0 0 0 0 0 0 0 0 0 0 0.25 0"/>
<feBlend mode="normal" in2="BackgroundImageFix" result="effect1_dropShadow_37_99"/>
<feBlend mode="normal" in="SourceGraphic" in2="effect1_dropShadow_37_99" result="shape"/>
</filter>
<linearGradient id="paint0_linear_37_99" x1="179" y1="0" x2="179" y2="352" gradientUnits="userSpaceOnUse">
<stop stop-color="#CFCFCF"/>
<stop offset="0.665" stop-color="#C1C1C1"/>
<stop offset="0.96" stop-color="#A0A0A0"/>
</linearGradient>
<linearGradient id="paint1_linear_37_99" x1="194" y1="13" x2="194" y2="333" gradientUnits="userSpaceOnUse">
<stop stop-color="#464646"/>
<stop offset="1" stop-color="#272727"/>
</linearGradient>
</defs>
</svg>
