<svg width="371" height="360" viewBox="0 0 371 360" fill="none" xmlns="http://www.w3.org/2000/svg">
<g filter="url(#filter0_d_37_87)">
<mask id="path-1-inside-1_37_87" fill="white">
<path d="M179 352C132.587 352 88.0752 333.457 55.2563 300.451C22.4374 267.444 4 222.678 4 176C4 129.322 22.4374 84.5556 55.2563 51.5492C88.0752 18.5428 132.587 -5.56631e-07 179 0L179 176L179 352Z"/>
</mask>
<path d="M179 352C132.587 352 88.0752 333.457 55.2563 300.451C22.4374 267.444 4 222.678 4 176C4 129.322 22.4374 84.5556 55.2563 51.5492C88.0752 18.5428 132.587 -5.56631e-07 179 0L179 176L179 352Z" fill="url(#paint0_linear_37_87)"/>
<path d="M179 352C132.587 352 88.0752 333.457 55.2563 300.451C22.4374 267.444 4 222.678 4 176C4 129.322 22.4374 84.5556 55.2563 51.5492C88.0752 18.5428 132.587 -5.56631e-07 179 0L179 176L179 352Z" stroke="black" stroke-opacity="0.08" stroke-width="2" mask="url(#path-1-inside-1_37_87)"/>
</g>
<g filter="url(#filter1_d_37_87)">
<mask id="path-2-inside-2_37_87" fill="white">
<path d="M192 6C238.413 6 282.925 23.9107 315.744 55.7918C348.563 87.673 367 130.913 367 176C367 221.087 348.563 264.327 315.744 296.208C282.925 328.089 238.413 346 192 346L192 176L192 6Z"/>
</mask>
<path d="M192 6C238.413 6 282.925 23.9107 315.744 55.7918C348.563 87.673 367 130.913 367 176C367 221.087 348.563 264.327 315.744 296.208C282.925 328.089 238.413 346 192 346L192 176L192 6Z" fill="url(#paint1_linear_37_87)"/>
<path d="M192 6C238.413 6 282.925 23.9107 315.744 55.7918C348.563 87.673 367 130.913 367 176C367 221.087 348.563 264.327 315.744 296.208C282.925 328.089 238.413 346 192 346L192 176L192 6Z" stroke="white" stroke-opacity="0.08" stroke-width="2" mask="url(#path-2-inside-2_37_87)"/>
</g>
<path d="M260.803 169.2C263.763 169.2 266.349 169.773 268.563 170.92C270.803 172.04 272.523 173.667 273.723 175.8C274.949 177.907 275.563 180.373 275.563 183.2C275.563 186.027 274.949 188.48 273.723 190.56C272.523 192.64 270.803 194.24 268.563 195.36C266.349 196.453 263.763 197 260.803 197H251.723V169.2H260.803ZM260.803 193.28C264.056 193.28 266.549 192.4 268.283 190.64C270.016 188.88 270.883 186.4 270.883 183.2C270.883 179.973 270.016 177.453 268.283 175.64C266.549 173.827 264.056 172.92 260.803 172.92H256.283V193.28H260.803ZM294.962 182.72C296.455 182.987 297.722 183.773 298.762 185.08C299.802 186.387 300.322 187.867 300.322 189.52C300.322 190.933 299.949 192.213 299.202 193.36C298.482 194.48 297.429 195.373 296.042 196.04C294.655 196.68 293.042 197 291.202 197H280.082V169.2H290.682C292.575 169.2 294.202 169.52 295.562 170.16C296.922 170.8 297.949 171.667 298.642 172.76C299.335 173.827 299.682 175.027 299.682 176.36C299.682 177.96 299.255 179.293 298.402 180.36C297.549 181.427 296.402 182.213 294.962 182.72ZM284.642 180.88H290.282C291.775 180.88 292.935 180.547 293.762 179.88C294.615 179.187 295.042 178.2 295.042 176.92C295.042 175.667 294.615 174.693 293.762 174C292.935 173.28 291.775 172.92 290.282 172.92H284.642V180.88ZM290.802 193.28C292.349 193.28 293.562 192.907 294.442 192.16C295.322 191.413 295.762 190.373 295.762 189.04C295.762 187.68 295.295 186.6 294.362 185.8C293.429 185 292.189 184.6 290.642 184.6H284.642V193.28H290.802Z" fill="white"/>
<path d="M64.0395 169.2V186.92C64.0395 189.027 64.5862 190.613 65.6795 191.68C66.7995 192.747 68.3462 193.28 70.3195 193.28C72.3195 193.28 73.8662 192.747 74.9595 191.68C76.0795 190.613 76.6395 189.027 76.6395 186.92V169.2H81.1995V186.84C81.1995 189.107 80.7062 191.027 79.7195 192.6C78.7329 194.173 77.4129 195.347 75.7595 196.12C74.1062 196.893 72.2795 197.28 70.2795 197.28C68.2795 197.28 66.4529 196.893 64.7995 196.12C63.1729 195.347 61.8795 194.173 60.9195 192.6C59.9595 191.027 59.4795 189.107 59.4795 186.84V169.2H64.0395ZM92.4567 178.68V190.88C92.4567 191.707 92.6434 192.307 93.0167 192.68C93.4167 193.027 94.0834 193.2 95.0167 193.2H97.8167V197H94.2167C92.1634 197 90.5901 196.52 89.4967 195.56C88.4034 194.6 87.8567 193.04 87.8567 190.88V178.68H85.2567V174.96H87.8567V169.48H92.4567V174.96H97.8167V178.68H92.4567ZM104.34 172.04C103.513 172.04 102.82 171.76 102.26 171.2C101.7 170.64 101.42 169.947 101.42 169.12C101.42 168.293 101.7 167.6 102.26 167.04C102.82 166.48 103.513 166.2 104.34 166.2C105.14 166.2 105.82 166.48 106.38 167.04C106.94 167.6 107.22 168.293 107.22 169.12C107.22 169.947 106.94 170.64 106.38 171.2C105.82 171.76 105.14 172.04 104.34 172.04ZM106.58 174.96V197H102.02V174.96H106.58ZM117.126 167.4V197H112.566V167.4H117.126ZM131.113 197.36C129.38 197.36 127.82 197.053 126.433 196.44C125.073 195.8 123.993 194.947 123.193 193.88C122.393 192.787 121.967 191.573 121.913 190.24H126.633C126.713 191.173 127.153 191.96 127.953 192.6C128.78 193.213 129.807 193.52 131.033 193.52C132.313 193.52 133.3 193.28 133.993 192.8C134.713 192.293 135.073 191.653 135.073 190.88C135.073 190.053 134.673 189.44 133.873 189.04C133.1 188.64 131.86 188.2 130.153 187.72C128.5 187.267 127.153 186.827 126.113 186.4C125.073 185.973 124.167 185.32 123.393 184.44C122.647 183.56 122.273 182.4 122.273 180.96C122.273 179.787 122.62 178.72 123.313 177.76C124.007 176.773 124.993 176 126.273 175.44C127.58 174.88 129.073 174.6 130.753 174.6C133.26 174.6 135.273 175.24 136.793 176.52C138.34 177.773 139.167 179.493 139.273 181.68H134.713C134.633 180.693 134.233 179.907 133.513 179.32C132.793 178.733 131.82 178.44 130.593 178.44C129.393 178.44 128.473 178.667 127.833 179.12C127.193 179.573 126.873 180.173 126.873 180.92C126.873 181.507 127.087 182 127.513 182.4C127.94 182.8 128.46 183.12 129.073 183.36C129.687 183.573 130.593 183.853 131.793 184.2C133.393 184.627 134.7 185.067 135.713 185.52C136.753 185.947 137.647 186.587 138.393 187.44C139.14 188.293 139.527 189.427 139.553 190.84C139.553 192.093 139.207 193.213 138.513 194.2C137.82 195.187 136.833 195.96 135.553 196.52C134.3 197.08 132.82 197.36 131.113 197.36Z" fill="white"/>
<defs>
<filter id="filter0_d_37_87" x="0" y="0" width="183" height="360" filterUnits="userSpaceOnUse" color-interpolation-filters="sRGB">
<feFlood flood-opacity="0" result="BackgroundImageFix"/>
<feColorMatrix in="SourceAlpha" type="matrix" values="0 0 0 0 0 0 0 0 0 0 0 0 0 0 0 0 0 0 127 0" result="hardAlpha"/>
<feOffset dy="4"/>
<feGaussianBlur stdDeviation="2"/>
<feComposite in2="hardAlpha" operator="out"/>
<feColorMatrix type="matrix" values="0 0 0 0 0 0 0 0 0 0 0 0 0 0 0 0 0 0 0.25 0"/>
<feBlend mode="normal" in2="BackgroundImageFix" result="effect1_dropShadow_37_87"/>
<feBlend mode="normal" in="SourceGraphic" in2="effect1_dropShadow_37_87" result="shape"/>
</filter>
<filter id="filter1_d_37_87" x="188" y="6" width="183" height="348" filterUnits="userSpaceOnUse" color-interpolation-filters="sRGB">
<feFlood flood-opacity="0" result="BackgroundImageFix"/>
<feColorMatrix in="SourceAlpha" type="matrix" values="0 0 0 0 0 0 0 0 0 0 0 0 0 0 0 0 0 0 127 0" result="hardAlpha"/>
<feOffset dy="4"/>
<feGaussianBlur stdDeviation="2"/>
<feComposite in2="hardAlpha" operator="out"/>
<feColorMatrix type="matrix" values="0 0 0 0 0 0 0 0 0 0 0 0 0 0 0 0 0 0 0.25 0"/>
<feBlend mode="normal" in2="BackgroundImageFix" result="effect1_dropShadow_37_87"/>
<feBlend mode="normal" in="SourceGraphic" in2="effect1_dropShadow_37_87" result="shape"/>
</filter>
<linearGradient id="paint0_linear_37_87" x1="179" y1="0" x2="179" y2="352" gradientUnits="userSpaceOnUse">
<stop stop-color="#CFCFCF"/>
<stop offset="0.67" stop-color="#C1C1C1"/>
<stop offset="0.96" stop-color="#A0A0A0"/>
</linearGradient>
<linearGradient id="paint1_linear_37_87" x1="192" y1="6" x2="192" y2="346" gradientUnits="userSpaceOnUse">
<stop stop-color="#444444"/>
<stop offset="1" stop-color="#2B2B2B"/>
</linearGradient>
</defs>
</svg>
